<?xml version="1.0" encoding="UTF-8" standalone="no"?>
<!DOCTYPE svg PUBLIC "-//W3C//DTD SVG 1.1//EN"
 "http://www.w3.org/Graphics/SVG/1.1/DTD/svg11.dtd">
<!-- Generated by graphviz version 12.0.0 (20240704.0754)
 -->
<!-- Title: Workflow Pages: 1 -->
<svg width="1152pt" height="1184pt"
 viewBox="0.00 0.00 1152.20 1183.55" xmlns="http://www.w3.org/2000/svg" xmlns:xlink="http://www.w3.org/1999/xlink">
<g id="graph0" class="graph" transform="scale(1 1) rotate(0) translate(4 1179.55)">
<title>Workflow</title>
<polygon fill="white" stroke="none" points="-4,4 -4,-1179.55 1148.2,-1179.55 1148.2,4 -4,4"/>
<text text-anchor="middle" x="572.1" y="-1154.45" font-family="Courier,monospace" font-size="18.00">nypl_menu_cleaning_workflow</text>
<g id="clust1" class="cluster">
<title>cluster_workflow_box_outer</title>
<polygon fill="none" stroke="black" stroke-width="2" points="8,-34.4 8,-1112.9 1090,-1112.9 1090,-34.4 8,-34.4"/>
</g>
<g id="clust2" class="cluster">
<title>cluster_workflow_box_inner</title>
<polygon fill="none" stroke="white" stroke-width="2" points="16,-42.4 16,-1104.9 1082,-1104.9 1082,-42.4 16,-42.4"/>
</g>
<!-- s1_profile_dataset_python -->
<g id="node1" class="node">
<title>s1_profile_dataset_python</title>
<polygon fill="#ccffcc" stroke="black" points="476.88,-962.9 476.88,-1010.4 699.12,-1010.4 699.12,-962.9 476.88,-962.9"/>
<text text-anchor="middle" x="588" y="-993.1" font-family="Courier,monospace" font-size="14.00">s1_profile_dataset_python</text>
<polyline fill="none" stroke="black" points="476.88,-986.65 699.12,-986.65"/>
<text text-anchor="middle" x="588" y="-969.35" font-family="Courier,monospace" font-size="14.00">Python Dataset Profiling</text>
</g>
<!-- s1_dq_issues_python -->
<g id="node16" class="node">
<title>s1_dq_issues_python</title>
<path fill="#ffffcc" stroke="black" d="M654.12,-926.4C654.12,-926.4 521.88,-926.4 521.88,-926.4 515.88,-926.4 509.88,-920.4 509.88,-914.4 509.88,-914.4 509.88,-902.4 509.88,-902.4 509.88,-896.4 515.88,-890.4 521.88,-890.4 521.88,-890.4 654.12,-890.4 654.12,-890.4 660.12,-890.4 666.12,-896.4 666.12,-902.4 666.12,-902.4 666.12,-914.4 666.12,-914.4 666.12,-920.4 660.12,-926.4 654.12,-926.4"/>
<text text-anchor="middle" x="588" y="-903.35" font-family="Helvetica,sans-Serif" font-size="14.00">s1_dq_issues_python</text>
</g>
<!-- s1_profile_dataset_python&#45;&gt;s1_dq_issues_python -->
<g id="edge1" class="edge">
<title>s1_profile_dataset_python&#45;&gt;s1_dq_issues_python</title>
<path fill="none" stroke="black" d="M588,-962.77C588,-954.99 588,-946.2 588,-938.02"/>
<polygon fill="black" stroke="black" points="591.5,-938.2 588,-928.2 584.5,-938.2 591.5,-938.2"/>
</g>
<!-- s1_profile_dataset_openrefine -->
<g id="node2" class="node">
<title>s1_profile_dataset_openrefine</title>
<polygon fill="#ccffcc" stroke="black" points="203.38,-962.9 203.38,-1010.4 458.62,-1010.4 458.62,-962.9 203.38,-962.9"/>
<text text-anchor="middle" x="331" y="-993.1" font-family="Courier,monospace" font-size="14.00">s1_profile_dataset_openrefine</text>
<polyline fill="none" stroke="black" points="203.38,-986.65 458.62,-986.65"/>
<text text-anchor="middle" x="331" y="-969.35" font-family="Courier,monospace" font-size="14.00">OpenRefine Dataset Profiling</text>
</g>
<!-- s1_dq_issues_openrefine -->
<g id="node17" class="node">
<title>s1_dq_issues_openrefine</title>
<path fill="#ffffcc" stroke="black" d="M445.25,-926.4C445.25,-926.4 286.75,-926.4 286.75,-926.4 280.75,-926.4 274.75,-920.4 274.75,-914.4 274.75,-914.4 274.75,-902.4 274.75,-902.4 274.75,-896.4 280.75,-890.4 286.75,-890.4 286.75,-890.4 445.25,-890.4 445.25,-890.4 451.25,-890.4 457.25,-896.4 457.25,-902.4 457.25,-902.4 457.25,-914.4 457.25,-914.4 457.25,-920.4 451.25,-926.4 445.25,-926.4"/>
<text text-anchor="middle" x="366" y="-903.35" font-family="Helvetica,sans-Serif" font-size="14.00">s1_dq_issues_openrefine</text>
</g>
<!-- s1_profile_dataset_openrefine&#45;&gt;s1_dq_issues_openrefine -->
<g id="edge3" class="edge">
<title>s1_profile_dataset_openrefine&#45;&gt;s1_dq_issues_openrefine</title>
<path fill="none" stroke="black" d="M341.5,-962.77C345.24,-954.63 349.49,-945.38 353.38,-936.89"/>
<polygon fill="black" stroke="black" points="356.44,-938.61 357.43,-928.06 350.08,-935.69 356.44,-938.61"/>
</g>
<!-- s1_combined_dq_issues -->
<g id="node3" class="node">
<title>s1_combined_dq_issues</title>
<polygon fill="#ccffcc" stroke="black" points="342.38,-806.4 342.38,-853.9 531.62,-853.9 531.62,-806.4 342.38,-806.4"/>
<text text-anchor="middle" x="437" y="-836.6" font-family="Courier,monospace" font-size="14.00">s1_combined_dq_issues</text>
<polyline fill="none" stroke="black" points="342.38,-830.15 531.62,-830.15"/>
<text text-anchor="middle" x="437" y="-812.85" font-family="Courier,monospace" font-size="14.00">Combined DQ Issues</text>
</g>
<!-- s1_dq_issues -->
<g id="node18" class="node">
<title>s1_dq_issues</title>
<path fill="#ffffcc" stroke="black" d="M478,-762.9C478,-762.9 396,-762.9 396,-762.9 390,-762.9 384,-756.9 384,-750.9 384,-750.9 384,-738.9 384,-738.9 384,-732.9 390,-726.9 396,-726.9 396,-726.9 478,-726.9 478,-726.9 484,-726.9 490,-732.9 490,-738.9 490,-738.9 490,-750.9 490,-750.9 490,-756.9 484,-762.9 478,-762.9"/>
<text text-anchor="middle" x="437" y="-739.85" font-family="Helvetica,sans-Serif" font-size="14.00">s1_dq_issues</text>
</g>
<!-- s1_combined_dq_issues&#45;&gt;s1_dq_issues -->
<g id="edge5" class="edge">
<title>s1_combined_dq_issues&#45;&gt;s1_dq_issues</title>
<path fill="none" stroke="black" d="M437,-805.96C437,-796.21 437,-784.77 437,-774.5"/>
<polygon fill="black" stroke="black" points="440.5,-774.67 437,-764.67 433.5,-774.67 440.5,-774.67"/>
</g>
<!-- s2_resolve_missing_values -->
<g id="node4" class="node">
<title>s2_resolve_missing_values</title>
<polygon fill="#ccffcc" stroke="black" points="708.12,-806.4 708.12,-853.9 979.88,-853.9 979.88,-806.4 708.12,-806.4"/>
<text text-anchor="middle" x="844" y="-836.6" font-family="Courier,monospace" font-size="14.00">s2_resolve_missing_values</text>
<polyline fill="none" stroke="black" points="708.12,-830.15 979.88,-830.15"/>
<text text-anchor="middle" x="844" y="-812.85" font-family="Courier,monospace" font-size="14.00">Remove or Impute Missing Values</text>
</g>
<!-- menu_s2_4 -->
<g id="node22" class="node">
<title>menu_s2_4</title>
<path fill="#ffffcc" stroke="black" d="M756.88,-720.4C756.88,-720.4 955.12,-720.4 955.12,-720.4 961.12,-720.4 967.12,-726.4 967.12,-732.4 967.12,-732.4 967.12,-757.4 967.12,-757.4 967.12,-763.4 961.12,-769.4 955.12,-769.4 955.12,-769.4 756.88,-769.4 756.88,-769.4 750.88,-769.4 744.88,-763.4 744.88,-757.4 744.88,-757.4 744.88,-732.4 744.88,-732.4 744.88,-726.4 750.88,-720.4 756.88,-720.4"/>
<text text-anchor="middle" x="856" y="-752.1" font-family="Helvetica,sans-Serif" font-size="14.00">menu_s2_4</text>
<polyline fill="none" stroke="black" points="744.88,-744.9 967.12,-744.9"/>
<text text-anchor="middle" x="856" y="-727.6" font-family="Helvetica,sans-Serif" font-size="14.00">s2_Clean_Missing_Values.ipynb</text>
</g>
<!-- s2_resolve_missing_values&#45;&gt;menu_s2_4 -->
<g id="edge8" class="edge">
<title>s2_resolve_missing_values&#45;&gt;menu_s2_4</title>
<path fill="none" stroke="black" d="M847.34,-805.96C848.46,-798.22 849.73,-789.41 850.94,-780.98"/>
<polygon fill="black" stroke="black" points="854.37,-781.73 852.33,-771.33 847.44,-780.73 854.37,-781.73"/>
</g>
<!-- s2_clean_physical_description -->
<g id="node5" class="node">
<title>s2_clean_physical_description</title>
<polygon fill="#ccffcc" stroke="black" points="24,-635.9 24,-683.4 304,-683.4 304,-635.9 24,-635.9"/>
<text text-anchor="middle" x="164" y="-666.1" font-family="Courier,monospace" font-size="14.00">s2_clean_physical_description</text>
<polyline fill="none" stroke="black" points="24,-659.65 304,-659.65"/>
<text text-anchor="middle" x="164" y="-642.35" font-family="Courier,monospace" font-size="14.00">Clean physical_descrption Column</text>
</g>
<!-- s2_openrefine_2 -->
<g id="node19" class="node">
<title>s2_openrefine_2</title>
<path fill="#ffffcc" stroke="black" d="M156.62,-549.9C156.62,-549.9 287.38,-549.9 287.38,-549.9 293.38,-549.9 299.38,-555.9 299.38,-561.9 299.38,-561.9 299.38,-586.9 299.38,-586.9 299.38,-592.9 293.38,-598.9 287.38,-598.9 287.38,-598.9 156.62,-598.9 156.62,-598.9 150.62,-598.9 144.62,-592.9 144.62,-586.9 144.62,-586.9 144.62,-561.9 144.62,-561.9 144.62,-555.9 150.62,-549.9 156.62,-549.9"/>
<text text-anchor="middle" x="222" y="-581.6" font-family="Helvetica,sans-Serif" font-size="14.00">s2_openrefine_2</text>
<polyline fill="none" stroke="black" points="144.62,-574.4 299.38,-574.4"/>
<text text-anchor="middle" x="222" y="-557.1" font-family="Helvetica,sans-Serif" font-size="14.00">s2_openrefine_2.json</text>
</g>
<!-- s2_clean_physical_description&#45;&gt;s2_openrefine_2 -->
<g id="edge11" class="edge">
<title>s2_clean_physical_description&#45;&gt;s2_openrefine_2</title>
<path fill="none" stroke="black" d="M180.16,-635.46C185.92,-627.19 192.52,-617.71 198.76,-608.76"/>
<polygon fill="black" stroke="black" points="201.61,-610.78 204.46,-600.58 195.87,-606.78 201.61,-610.78"/>
</g>
<!-- s2_clean_location_data -->
<g id="node6" class="node">
<title>s2_clean_location_data</title>
<polygon fill="#ccffcc" stroke="black" points="321.75,-635.9 321.75,-683.4 552.25,-683.4 552.25,-635.9 321.75,-635.9"/>
<text text-anchor="middle" x="437" y="-666.1" font-family="Courier,monospace" font-size="14.00">s2_clean_location_data</text>
<polyline fill="none" stroke="black" points="321.75,-659.65 552.25,-659.65"/>
<text text-anchor="middle" x="437" y="-642.35" font-family="Courier,monospace" font-size="14.00">Clean location_data Column</text>
</g>
<!-- s2_openrefine_3 -->
<g id="node20" class="node">
<title>s2_openrefine_3</title>
<path fill="#ffffcc" stroke="black" d="M388.62,-549.9C388.62,-549.9 519.38,-549.9 519.38,-549.9 525.38,-549.9 531.38,-555.9 531.38,-561.9 531.38,-561.9 531.38,-586.9 531.38,-586.9 531.38,-592.9 525.38,-598.9 519.38,-598.9 519.38,-598.9 388.62,-598.9 388.62,-598.9 382.62,-598.9 376.62,-592.9 376.62,-586.9 376.62,-586.9 376.62,-561.9 376.62,-561.9 376.62,-555.9 382.62,-549.9 388.62,-549.9"/>
<text text-anchor="middle" x="454" y="-581.6" font-family="Helvetica,sans-Serif" font-size="14.00">s2_openrefine_3</text>
<polyline fill="none" stroke="black" points="376.62,-574.4 531.38,-574.4"/>
<text text-anchor="middle" x="454" y="-557.1" font-family="Helvetica,sans-Serif" font-size="14.00">s2_openrefine_3.json</text>
</g>
<!-- s2_clean_location_data&#45;&gt;s2_openrefine_3 -->
<g id="edge14" class="edge">
<title>s2_clean_location_data&#45;&gt;s2_openrefine_3</title>
<path fill="none" stroke="black" d="M441.74,-635.46C443.32,-627.72 445.11,-618.91 446.84,-610.48"/>
<polygon fill="black" stroke="black" points="450.24,-611.32 448.81,-600.82 443.38,-609.91 450.24,-611.32"/>
</g>
<!-- s2_standardize_event -->
<g id="node7" class="node">
<title>s2_standardize_event</title>
<polygon fill="#ccffcc" stroke="black" points="570,-635.9 570,-683.4 784,-683.4 784,-635.9 570,-635.9"/>
<text text-anchor="middle" x="677" y="-666.1" font-family="Courier,monospace" font-size="14.00">s2_standardize_event</text>
<polyline fill="none" stroke="black" points="570,-659.65 784,-659.65"/>
<text text-anchor="middle" x="677" y="-642.35" font-family="Courier,monospace" font-size="14.00">Standardize event Column</text>
</g>
<!-- s2_openrefine_1 -->
<g id="node21" class="node">
<title>s2_openrefine_1</title>
<path fill="#ffffcc" stroke="black" d="M578.62,-549.9C578.62,-549.9 709.38,-549.9 709.38,-549.9 715.38,-549.9 721.38,-555.9 721.38,-561.9 721.38,-561.9 721.38,-586.9 721.38,-586.9 721.38,-592.9 715.38,-598.9 709.38,-598.9 709.38,-598.9 578.62,-598.9 578.62,-598.9 572.62,-598.9 566.62,-592.9 566.62,-586.9 566.62,-586.9 566.62,-561.9 566.62,-561.9 566.62,-555.9 572.62,-549.9 578.62,-549.9"/>
<text text-anchor="middle" x="644" y="-581.6" font-family="Helvetica,sans-Serif" font-size="14.00">s2_openrefine_1</text>
<polyline fill="none" stroke="black" points="566.62,-574.4 721.38,-574.4"/>
<text text-anchor="middle" x="644" y="-557.1" font-family="Helvetica,sans-Serif" font-size="14.00">s2_openrefine_1.json</text>
</g>
<!-- s2_standardize_event&#45;&gt;s2_openrefine_1 -->
<g id="edge17" class="edge">
<title>s2_standardize_event&#45;&gt;s2_openrefine_1</title>
<path fill="none" stroke="black" d="M667.81,-635.46C664.67,-627.54 661.09,-618.51 657.68,-609.9"/>
<polygon fill="black" stroke="black" points="660.98,-608.75 654.05,-600.74 654.48,-611.33 660.98,-608.75"/>
</g>
<!-- s2_merge -->
<g id="node8" class="node">
<title>s2_merge</title>
<polygon fill="#ccffcc" stroke="black" points="390,-464.65 390,-512.15 670,-512.15 670,-464.65 390,-464.65"/>
<text text-anchor="middle" x="530" y="-494.85" font-family="Courier,monospace" font-size="14.00">s2_merge</text>
<polyline fill="none" stroke="black" points="390,-488.4 670,-488.4"/>
<text text-anchor="middle" x="530" y="-471.1" font-family="Courier,monospace" font-size="14.00">Merge Open Refine Cleaning Tasks</text>
</g>
<!-- s2_combined_openrefine -->
<g id="node24" class="node">
<title>s2_combined_openrefine</title>
<path fill="#ffffcc" stroke="black" d="M590,-377.9C590,-377.9 774,-377.9 774,-377.9 780,-377.9 786,-383.9 786,-389.9 786,-389.9 786,-414.9 786,-414.9 786,-420.9 780,-426.9 774,-426.9 774,-426.9 590,-426.9 590,-426.9 584,-426.9 578,-420.9 578,-414.9 578,-414.9 578,-389.9 578,-389.9 578,-383.9 584,-377.9 590,-377.9"/>
<text text-anchor="middle" x="682" y="-409.6" font-family="Helvetica,sans-Serif" font-size="14.00">s2_combined_openrefine</text>
<polyline fill="none" stroke="black" points="578,-402.4 786,-402.4"/>
<text text-anchor="middle" x="682" y="-385.1" font-family="Helvetica,sans-Serif" font-size="14.00">file:combined_openrefine.json</text>
</g>
<!-- s2_merge&#45;&gt;s2_combined_openrefine -->
<g id="edge20" class="edge">
<title>s2_merge&#45;&gt;s2_combined_openrefine</title>
<path fill="none" stroke="black" d="M571.94,-464.22C589.52,-454.51 610.16,-443.1 628.79,-432.81"/>
<polygon fill="black" stroke="black" points="630.23,-436.01 637.29,-428.11 626.84,-429.88 630.23,-436.01"/>
</g>
<!-- s2_clean_missing_values -->
<g id="node9" class="node">
<title>s2_clean_missing_values</title>
<polygon fill="#ccffcc" stroke="black" points="802.12,-635.9 802.12,-683.4 1073.88,-683.4 1073.88,-635.9 802.12,-635.9"/>
<text text-anchor="middle" x="938" y="-666.1" font-family="Courier,monospace" font-size="14.00">s2_clean_missing_values</text>
<polyline fill="none" stroke="black" points="802.12,-659.65 1073.88,-659.65"/>
<text text-anchor="middle" x="938" y="-642.35" font-family="Courier,monospace" font-size="14.00">Remove or Impute Missing Values</text>
</g>
<!-- s2_menu_csv -->
<g id="node23" class="node">
<title>s2_menu_csv</title>
<path fill="#ffffcc" stroke="black" d="M818.5,-463.9C818.5,-463.9 945.5,-463.9 945.5,-463.9 951.5,-463.9 957.5,-469.9 957.5,-475.9 957.5,-475.9 957.5,-500.9 957.5,-500.9 957.5,-506.9 951.5,-512.9 945.5,-512.9 945.5,-512.9 818.5,-512.9 818.5,-512.9 812.5,-512.9 806.5,-506.9 806.5,-500.9 806.5,-500.9 806.5,-475.9 806.5,-475.9 806.5,-469.9 812.5,-463.9 818.5,-463.9"/>
<text text-anchor="middle" x="882" y="-495.6" font-family="Helvetica,sans-Serif" font-size="14.00">s2_menu_csv</text>
<polyline fill="none" stroke="black" points="806.5,-488.4 957.5,-488.4"/>
<text text-anchor="middle" x="882" y="-471.1" font-family="Helvetica,sans-Serif" font-size="14.00">file:menu_data_1.csv</text>
</g>
<!-- s2_clean_missing_values&#45;&gt;s2_menu_csv -->
<g id="edge24" class="edge">
<title>s2_clean_missing_values&#45;&gt;s2_menu_csv</title>
<path fill="none" stroke="black" d="M930.33,-635.47C920.8,-606.68 904.46,-557.29 893.45,-524.01"/>
<polygon fill="black" stroke="black" points="896.88,-523.22 890.41,-514.83 890.23,-525.42 896.88,-523.22"/>
</g>
<!-- s2_s2_combined_openrefine_cleaning -->
<g id="node10" class="node">
<title>s2_s2_combined_openrefine_cleaning</title>
<polygon fill="#ccffcc" stroke="black" points="709.75,-293.4 709.75,-340.9 1006.25,-340.9 1006.25,-293.4 709.75,-293.4"/>
<text text-anchor="middle" x="858" y="-323.6" font-family="Courier,monospace" font-size="14.00">s2_s2_combined_openrefine_cleaning</text>
<polyline fill="none" stroke="black" points="709.75,-317.15 1006.25,-317.15"/>
<text text-anchor="middle" x="858" y="-299.85" font-family="Courier,monospace" font-size="14.00">Final Cleaning of Dataset</text>
</g>
<!-- cleaned_menu -->
<g id="node12" class="node">
<title>cleaned_menu</title>
<path fill="#ffffcc" stroke="black" d="M726.12,-207.4C726.12,-207.4 853.88,-207.4 853.88,-207.4 859.88,-207.4 865.88,-213.4 865.88,-219.4 865.88,-219.4 865.88,-244.4 865.88,-244.4 865.88,-250.4 859.88,-256.4 853.88,-256.4 853.88,-256.4 726.12,-256.4 726.12,-256.4 720.12,-256.4 714.12,-250.4 714.12,-244.4 714.12,-244.4 714.12,-219.4 714.12,-219.4 714.12,-213.4 720.12,-207.4 726.12,-207.4"/>
<text text-anchor="middle" x="790" y="-239.1" font-family="Helvetica,sans-Serif" font-size="14.00">cleaned_menu</text>
<polyline fill="none" stroke="black" points="714.12,-231.9 865.88,-231.9"/>
<text text-anchor="middle" x="790" y="-214.6" font-family="Helvetica,sans-Serif" font-size="14.00">file:CleanedMenu.csv</text>
</g>
<!-- s2_s2_combined_openrefine_cleaning&#45;&gt;cleaned_menu -->
<g id="edge27" class="edge">
<title>s2_s2_combined_openrefine_cleaning&#45;&gt;cleaned_menu</title>
<path fill="none" stroke="black" d="M839.06,-292.96C832.16,-284.52 824.23,-274.8 816.78,-265.69"/>
<polygon fill="black" stroke="black" points="819.54,-263.54 810.51,-258.01 814.12,-267.97 819.54,-263.54"/>
</g>
<!-- open_refine_history -->
<g id="node13" class="node">
<title>open_refine_history</title>
<path fill="#ffffcc" stroke="black" d="M896.38,-207.4C896.38,-207.4 1061.62,-207.4 1061.62,-207.4 1067.62,-207.4 1073.62,-213.4 1073.62,-219.4 1073.62,-219.4 1073.62,-244.4 1073.62,-244.4 1073.62,-250.4 1067.62,-256.4 1061.62,-256.4 1061.62,-256.4 896.38,-256.4 896.38,-256.4 890.38,-256.4 884.38,-250.4 884.38,-244.4 884.38,-244.4 884.38,-219.4 884.38,-219.4 884.38,-213.4 890.38,-207.4 896.38,-207.4"/>
<text text-anchor="middle" x="979" y="-239.1" font-family="Helvetica,sans-Serif" font-size="14.00">open_refine_history</text>
<polyline fill="none" stroke="black" points="884.38,-231.9 1073.62,-231.9"/>
<text text-anchor="middle" x="979" y="-214.6" font-family="Helvetica,sans-Serif" font-size="14.00">file:OpenRefineHistory.json</text>
</g>
<!-- s2_s2_combined_openrefine_cleaning&#45;&gt;open_refine_history -->
<g id="edge28" class="edge">
<title>s2_s2_combined_openrefine_cleaning&#45;&gt;open_refine_history</title>
<path fill="none" stroke="black" d="M891.71,-292.96C905.13,-283.73 920.76,-272.97 935.05,-263.14"/>
<polygon fill="black" stroke="black" points="936.71,-266.24 942.97,-257.69 932.74,-260.48 936.71,-266.24"/>
</g>
<!-- s3_data_quality_check -->
<g id="node11" class="node">
<title>s3_data_quality_check</title>
<polygon fill="#ccffcc" stroke="black" points="695.38,-122.9 695.38,-170.4 884.62,-170.4 884.62,-122.9 695.38,-122.9"/>
<text text-anchor="middle" x="790" y="-153.1" font-family="Courier,monospace" font-size="14.00">s3_data_quality_check</text>
<polyline fill="none" stroke="black" points="695.38,-146.65 884.62,-146.65"/>
<text text-anchor="middle" x="790" y="-129.35" font-family="Courier,monospace" font-size="14.00">Data Quality Check</text>
</g>
<!-- data_quality_reports -->
<g id="node14" class="node">
<title>data_quality_reports</title>
<path fill="#ffffcc" stroke="black" d="M850.12,-86.4C850.12,-86.4 729.88,-86.4 729.88,-86.4 723.88,-86.4 717.88,-80.4 717.88,-74.4 717.88,-74.4 717.88,-62.4 717.88,-62.4 717.88,-56.4 723.88,-50.4 729.88,-50.4 729.88,-50.4 850.12,-50.4 850.12,-50.4 856.12,-50.4 862.12,-56.4 862.12,-62.4 862.12,-62.4 862.12,-74.4 862.12,-74.4 862.12,-80.4 856.12,-86.4 850.12,-86.4"/>
<text text-anchor="middle" x="790" y="-63.35" font-family="Helvetica,sans-Serif" font-size="14.00">data_quality_reports</text>
</g>
<!-- s3_data_quality_check&#45;&gt;data_quality_reports -->
<g id="edge31" class="edge">
<title>s3_data_quality_check&#45;&gt;data_quality_reports</title>
<path fill="none" stroke="black" d="M790,-122.77C790,-114.99 790,-106.2 790,-98.02"/>
<polygon fill="black" stroke="black" points="793.5,-98.2 790,-88.2 786.5,-98.2 793.5,-98.2"/>
</g>
<!-- cleaned_menu&#45;&gt;s3_data_quality_check -->
<g id="edge32" class="edge">
<title>cleaned_menu&#45;&gt;s3_data_quality_check</title>
<path fill="none" stroke="black" d="M790,-207.27C790,-199.49 790,-190.68 790,-182.26"/>
<polygon fill="black" stroke="black" points="793.5,-182.28 790,-172.28 786.5,-182.28 793.5,-182.28"/>
</g>
<!-- cleaned_menu_output_port -->
<g id="node26" class="node">
<title>cleaned_menu_output_port</title>
<ellipse fill="#ffffff" stroke="black" cx="1105" cy="-146.65" rx="7.2" ry="7.2"/>
</g>
<!-- cleaned_menu&#45;&gt;cleaned_menu_output_port -->
<g id="edge34" class="edge">
<title>cleaned_menu&#45;&gt;cleaned_menu_output_port</title>
<path fill="none" stroke="black" d="M866.36,-208.93C869.27,-208.22 872.16,-207.54 875,-206.9 967.8,-185.95 1003.79,-218.77 1086,-170.9 1089.6,-168.8 1092.81,-165.74 1095.52,-162.53"/>
<polygon fill="black" stroke="black" points="1098.29,-164.67 1101.16,-154.48 1092.56,-160.66 1098.29,-164.67"/>
</g>
<!-- open_refine_history_output_port -->
<g id="node27" class="node">
<title>open_refine_history_output_port</title>
<ellipse fill="#ffffff" stroke="black" cx="1137" cy="-146.65" rx="7.2" ry="7.2"/>
</g>
<!-- open_refine_history&#45;&gt;open_refine_history_output_port -->
<g id="edge35" class="edge">
<title>open_refine_history&#45;&gt;open_refine_history_output_port</title>
<path fill="none" stroke="black" d="M1057.51,-206.98C1079.49,-197.92 1102.43,-186.03 1121,-170.9 1123.62,-168.77 1125.98,-166.1 1128.04,-163.34"/>
<polygon fill="black" stroke="black" points="1130.93,-165.33 1133.28,-155 1125,-161.61 1130.93,-165.33"/>
</g>
<!-- data_quality_reports_output_port -->
<g id="node28" class="node">
<title>data_quality_reports_output_port</title>
<ellipse fill="#ffffff" stroke="black" cx="790" cy="-7.2" rx="7.2" ry="7.2"/>
</g>
<!-- data_quality_reports&#45;&gt;data_quality_reports_output_port -->
<g id="edge36" class="edge">
<title>data_quality_reports&#45;&gt;data_quality_reports_output_port</title>
<path fill="none" stroke="black" d="M790,-49.96C790,-42.45 790,-33.67 790,-26.11"/>
<polygon fill="black" stroke="black" points="793.5,-26.17 790,-16.17 786.5,-26.17 793.5,-26.17"/>
</g>
<!-- menu_csv -->
<g id="node15" class="node">
<title>menu_csv</title>
<path fill="#ffffcc" stroke="black" d="M550.38,-1047.4C550.38,-1047.4 625.62,-1047.4 625.62,-1047.4 631.62,-1047.4 637.62,-1053.4 637.62,-1059.4 637.62,-1059.4 637.62,-1084.4 637.62,-1084.4 637.62,-1090.4 631.62,-1096.4 625.62,-1096.4 625.62,-1096.4 550.38,-1096.4 550.38,-1096.4 544.38,-1096.4 538.38,-1090.4 538.38,-1084.4 538.38,-1084.4 538.38,-1059.4 538.38,-1059.4 538.38,-1053.4 544.38,-1047.4 550.38,-1047.4"/>
<text text-anchor="middle" x="588" y="-1079.1" font-family="Helvetica,sans-Serif" font-size="14.00">menu_csv</text>
<polyline fill="none" stroke="black" points="538.38,-1071.9 637.62,-1071.9"/>
<text text-anchor="middle" x="588" y="-1054.6" font-family="Helvetica,sans-Serif" font-size="14.00">file:menu.csv</text>
</g>
<!-- menu_csv&#45;&gt;s1_profile_dataset_python -->
<g id="edge2" class="edge">
<title>menu_csv&#45;&gt;s1_profile_dataset_python</title>
<path fill="none" stroke="black" d="M588,-1047.27C588,-1039.49 588,-1030.68 588,-1022.26"/>
<polygon fill="black" stroke="black" points="591.5,-1022.28 588,-1012.28 584.5,-1022.28 591.5,-1022.28"/>
</g>
<!-- menu_csv&#45;&gt;s1_profile_dataset_openrefine -->
<g id="edge4" class="edge">
<title>menu_csv&#45;&gt;s1_profile_dataset_openrefine</title>
<path fill="none" stroke="black" d="M538.14,-1054.75C502.77,-1043.29 454.47,-1027.65 413.41,-1014.35"/>
<polygon fill="black" stroke="black" points="414.63,-1011.06 404.03,-1011.31 412.47,-1017.72 414.63,-1011.06"/>
</g>
<!-- menu_csv&#45;&gt;s2_resolve_missing_values -->
<g id="edge9" class="edge">
<title>menu_csv&#45;&gt;s2_resolve_missing_values</title>
<path fill="none" stroke="black" d="M637.93,-1056.27C665.16,-1046.54 698.25,-1031.68 723,-1010.9 771.96,-969.81 809.23,-904.07 828.77,-864.51"/>
<polygon fill="black" stroke="black" points="831.83,-866.22 833.03,-855.69 825.52,-863.18 831.83,-866.22"/>
</g>
<!-- menu_csv&#45;&gt;s2_clean_physical_description -->
<g id="edge12" class="edge">
<title>menu_csv&#45;&gt;s2_clean_physical_description</title>
<path fill="none" stroke="black" d="M538.22,-1071.15C438.78,-1070.53 220.91,-1063.07 172,-1010.9 141.05,-977.89 164,-954.65 164,-909.4 164,-909.4 164,-909.4 164,-829.15 164,-782.7 164,-729.05 164,-695"/>
<polygon fill="black" stroke="black" points="167.5,-695.33 164,-685.33 160.5,-695.33 167.5,-695.33"/>
</g>
<!-- menu_csv&#45;&gt;s2_clean_location_data -->
<g id="edge15" class="edge">
<title>menu_csv&#45;&gt;s2_clean_location_data</title>
<path fill="none" stroke="black" d="M537.99,-1070.62C442.64,-1068.94 240.19,-1059.6 194,-1010.9 162.81,-978.01 184,-954.73 184,-909.4 184,-909.4 184,-909.4 184,-829.15 184,-755.11 259.99,-711.62 328.67,-687.42"/>
<polygon fill="black" stroke="black" points="329.41,-690.87 337.75,-684.34 327.16,-684.24 329.41,-690.87"/>
</g>
<!-- menu_csv&#45;&gt;s2_standardize_event -->
<g id="edge18" class="edge">
<title>menu_csv&#45;&gt;s2_standardize_event</title>
<path fill="none" stroke="black" d="M638.08,-1059.3C663.72,-1050.55 692.69,-1035.67 708,-1010.9 716.23,-997.58 691.37,-780.72 681.16,-695.06"/>
<polygon fill="black" stroke="black" points="684.64,-694.67 679.97,-685.15 677.69,-695.5 684.64,-694.67"/>
</g>
<!-- menu_csv&#45;&gt;s2_clean_missing_values -->
<g id="edge25" class="edge">
<title>menu_csv&#45;&gt;s2_clean_missing_values</title>
<path fill="none" stroke="black" d="M637.99,-1062.18C747.52,-1041.65 999,-986.16 999,-909.4 999,-909.4 999,-909.4 999,-829.15 999,-779.53 994.81,-765.81 976,-719.9 972.27,-710.8 967.13,-701.56 961.83,-693.17"/>
<polygon fill="black" stroke="black" points="964.89,-691.45 956.45,-685.04 959.05,-695.31 964.89,-691.45"/>
</g>
<!-- s1_dq_issues_python&#45;&gt;s1_combined_dq_issues -->
<g id="edge6" class="edge">
<title>s1_dq_issues_python&#45;&gt;s1_combined_dq_issues</title>
<path fill="none" stroke="black" d="M553.36,-889.91C535.48,-880.88 513.23,-869.64 492.99,-859.42"/>
<polygon fill="black" stroke="black" points="494.79,-856.41 484.28,-855.03 491.63,-862.66 494.79,-856.41"/>
</g>
<!-- s1_dq_issues_python&#45;&gt;s2_resolve_missing_values -->
<g id="edge10" class="edge">
<title>s1_dq_issues_python&#45;&gt;s2_resolve_missing_values</title>
<path fill="none" stroke="black" d="M646.73,-889.91C678.84,-880.34 719.27,-868.3 755.15,-857.61"/>
<polygon fill="black" stroke="black" points="756.09,-860.99 764.68,-854.78 754.09,-854.28 756.09,-860.99"/>
</g>
<!-- s1_dq_issues_openrefine&#45;&gt;s1_combined_dq_issues -->
<g id="edge7" class="edge">
<title>s1_dq_issues_openrefine&#45;&gt;s1_combined_dq_issues</title>
<path fill="none" stroke="black" d="M382.11,-890.1C389.69,-881.96 398.97,-871.99 407.73,-862.58"/>
<polygon fill="black" stroke="black" points="410.28,-864.98 414.54,-855.28 405.16,-860.21 410.28,-864.98"/>
</g>
<!-- s1_dq_issues&#45;&gt;s2_clean_physical_description -->
<g id="edge13" class="edge">
<title>s1_dq_issues&#45;&gt;s2_clean_physical_description</title>
<path fill="none" stroke="black" d="M383.71,-727.65C346.02,-716.16 294.64,-700.49 251.04,-687.19"/>
<polygon fill="black" stroke="black" points="252.17,-683.88 241.58,-684.31 250.13,-690.57 252.17,-683.88"/>
</g>
<!-- s1_dq_issues&#45;&gt;s2_clean_location_data -->
<g id="edge16" class="edge">
<title>s1_dq_issues&#45;&gt;s2_clean_location_data</title>
<path fill="none" stroke="black" d="M437,-726.65C437,-717.56 437,-706.07 437,-695.23"/>
<polygon fill="black" stroke="black" points="440.5,-695.39 437,-685.39 433.5,-695.39 440.5,-695.39"/>
</g>
<!-- s1_dq_issues&#45;&gt;s2_standardize_event -->
<g id="edge19" class="edge">
<title>s1_dq_issues&#45;&gt;s2_standardize_event</title>
<path fill="none" stroke="black" d="M487.31,-726.45C519.84,-715.17 562.82,-700.26 599.64,-687.48"/>
<polygon fill="black" stroke="black" points="600.62,-690.85 608.92,-684.26 598.33,-684.24 600.62,-690.85"/>
</g>
<!-- s2_openrefine_2&#45;&gt;s2_merge -->
<g id="edge21" class="edge">
<title>s2_openrefine_2&#45;&gt;s2_merge</title>
<path fill="none" stroke="black" d="M299.72,-552.2C340.46,-541.09 390.73,-527.38 433.89,-515.61"/>
<polygon fill="black" stroke="black" points="434.8,-518.99 443.53,-512.98 432.96,-512.24 434.8,-518.99"/>
</g>
<!-- s2_openrefine_3&#45;&gt;s2_merge -->
<g id="edge22" class="edge">
<title>s2_openrefine_3&#45;&gt;s2_merge</title>
<path fill="none" stroke="black" d="M475.58,-549.55C483.64,-540.64 492.92,-530.38 501.52,-520.88"/>
<polygon fill="black" stroke="black" points="504.03,-523.32 508.14,-513.56 498.84,-518.63 504.03,-523.32"/>
</g>
<!-- s2_openrefine_1&#45;&gt;s2_merge -->
<g id="edge23" class="edge">
<title>s2_openrefine_1&#45;&gt;s2_merge</title>
<path fill="none" stroke="black" d="M611.64,-549.55C598.8,-540.1 583.9,-529.12 570.37,-519.15"/>
<polygon fill="black" stroke="black" points="572.61,-516.45 562.48,-513.33 568.46,-522.08 572.61,-516.45"/>
</g>
<!-- menu_s2_4&#45;&gt;s2_clean_missing_values -->
<g id="edge26" class="edge">
<title>menu_s2_4&#45;&gt;s2_clean_missing_values</title>
<path fill="none" stroke="black" d="M879.28,-720.27C887.99,-711.42 898.03,-701.23 907.32,-691.8"/>
<polygon fill="black" stroke="black" points="909.64,-694.43 914.17,-684.85 904.66,-689.51 909.64,-694.43"/>
</g>
<!-- s2_menu_csv&#45;&gt;s2_s2_combined_openrefine_cleaning -->
<g id="edge29" class="edge">
<title>s2_menu_csv&#45;&gt;s2_s2_combined_openrefine_cleaning</title>
<path fill="none" stroke="black" d="M878.61,-463.51C874.52,-434.62 867.59,-385.77 862.91,-352.75"/>
<polygon fill="black" stroke="black" points="866.38,-352.28 861.51,-342.87 859.44,-353.27 866.38,-352.28"/>
</g>
<!-- s2_combined_openrefine&#45;&gt;s2_s2_combined_openrefine_cleaning -->
<g id="edge30" class="edge">
<title>s2_combined_openrefine&#45;&gt;s2_s2_combined_openrefine_cleaning</title>
<path fill="none" stroke="black" d="M732.43,-377.54C753.12,-367.76 777.22,-356.36 798.74,-346.18"/>
<polygon fill="black" stroke="black" points="800.16,-349.38 807.71,-341.94 797.17,-343.05 800.16,-349.38"/>
</g>
<!-- menu_csv_input_port -->
<g id="node25" class="node">
<title>menu_csv_input_port</title>
<ellipse fill="#ffffff" stroke="black" cx="588" cy="-1140.1" rx="7.2" ry="7.2"/>
</g>
<!-- menu_csv_input_port&#45;&gt;menu_csv -->
<g id="edge33" class="edge">
<title>menu_csv_input_port&#45;&gt;menu_csv</title>
<path fill="none" stroke="black" d="M588,-1132.51C588,-1126.6 588,-1117.45 588,-1108.07"/>
<polygon fill="black" stroke="black" points="591.5,-1108.24 588,-1098.24 584.5,-1108.24 591.5,-1108.24"/>
</g>
</g>
</svg>
