<?xml version="1.0" encoding="UTF-8" standalone="no"?>
<!DOCTYPE svg PUBLIC "-//W3C//DTD SVG 1.1//EN"
 "http://www.w3.org/Graphics/SVG/1.1/DTD/svg11.dtd">
<!-- Generated by graphviz version 12.0.0 (20240704.0754)
 -->
<!-- Title: Workflow Pages: 1 -->
<svg width="1152pt" height="1085pt"
 viewBox="0.00 0.00 1152.20 1085.15" xmlns="http://www.w3.org/2000/svg" xmlns:xlink="http://www.w3.org/1999/xlink">
<g id="graph0" class="graph" transform="scale(1 1) rotate(0) translate(4 1081.15)">
<title>Workflow</title>
<polygon fill="white" stroke="none" points="-4,4 -4,-1081.15 1148.2,-1081.15 1148.2,4 -4,4"/>
<text text-anchor="middle" x="572.1" y="-1056.05" font-family="Courier,monospace" font-size="18.00">CS512_Phase_II</text>
<g id="clust1" class="cluster">
<title>cluster_workflow_box_outer</title>
<polygon fill="none" stroke="black" stroke-width="2" points="8,-8 8,-1014.5 1090,-1014.5 1090,-8 8,-8"/>
</g>
<g id="clust2" class="cluster">
<title>cluster_workflow_box_inner</title>
<polygon fill="none" stroke="white" stroke-width="2" points="16,-16 16,-1006.5 1082,-1006.5 1082,-16 16,-16"/>
</g>
<!-- s1_profile_dataset_python -->
<g id="node1" class="node">
<title>s1_profile_dataset_python</title>
<polygon fill="#ccffcc" stroke="black" points="476.88,-864.5 476.88,-912 699.12,-912 699.12,-864.5 476.88,-864.5"/>
<text text-anchor="middle" x="588" y="-894.7" font-family="Courier,monospace" font-size="14.00">s1_profile_dataset_python</text>
<polyline fill="none" stroke="black" points="476.88,-888.25 699.12,-888.25"/>
<text text-anchor="middle" x="588" y="-870.95" font-family="Courier,monospace" font-size="14.00">Python Dataset Profiling</text>
</g>
<!-- s1_dq_issues_python -->
<g id="node15" class="node">
<title>s1_dq_issues_python</title>
<path fill="#ffffcc" stroke="black" d="M654.12,-828C654.12,-828 521.88,-828 521.88,-828 515.88,-828 509.88,-822 509.88,-816 509.88,-816 509.88,-804 509.88,-804 509.88,-798 515.88,-792 521.88,-792 521.88,-792 654.12,-792 654.12,-792 660.12,-792 666.12,-798 666.12,-804 666.12,-804 666.12,-816 666.12,-816 666.12,-822 660.12,-828 654.12,-828"/>
<text text-anchor="middle" x="588" y="-804.95" font-family="Helvetica,sans-Serif" font-size="14.00">s1_dq_issues_python</text>
</g>
<!-- s1_profile_dataset_python&#45;&gt;s1_dq_issues_python -->
<g id="edge1" class="edge">
<title>s1_profile_dataset_python&#45;&gt;s1_dq_issues_python</title>
<path fill="none" stroke="black" d="M588,-864.37C588,-856.59 588,-847.8 588,-839.62"/>
<polygon fill="black" stroke="black" points="591.5,-839.8 588,-829.8 584.5,-839.8 591.5,-839.8"/>
</g>
<!-- s1_profile_dataset_openrefine -->
<g id="node2" class="node">
<title>s1_profile_dataset_openrefine</title>
<polygon fill="#ccffcc" stroke="black" points="203.38,-864.5 203.38,-912 458.62,-912 458.62,-864.5 203.38,-864.5"/>
<text text-anchor="middle" x="331" y="-894.7" font-family="Courier,monospace" font-size="14.00">s1_profile_dataset_openrefine</text>
<polyline fill="none" stroke="black" points="203.38,-888.25 458.62,-888.25"/>
<text text-anchor="middle" x="331" y="-870.95" font-family="Courier,monospace" font-size="14.00">OpenRefine Dataset Profiling</text>
</g>
<!-- s1_dq_issues_openrefine -->
<g id="node16" class="node">
<title>s1_dq_issues_openrefine</title>
<path fill="#ffffcc" stroke="black" d="M445.25,-828C445.25,-828 286.75,-828 286.75,-828 280.75,-828 274.75,-822 274.75,-816 274.75,-816 274.75,-804 274.75,-804 274.75,-798 280.75,-792 286.75,-792 286.75,-792 445.25,-792 445.25,-792 451.25,-792 457.25,-798 457.25,-804 457.25,-804 457.25,-816 457.25,-816 457.25,-822 451.25,-828 445.25,-828"/>
<text text-anchor="middle" x="366" y="-804.95" font-family="Helvetica,sans-Serif" font-size="14.00">s1_dq_issues_openrefine</text>
</g>
<!-- s1_profile_dataset_openrefine&#45;&gt;s1_dq_issues_openrefine -->
<g id="edge3" class="edge">
<title>s1_profile_dataset_openrefine&#45;&gt;s1_dq_issues_openrefine</title>
<path fill="none" stroke="black" d="M341.5,-864.37C345.24,-856.23 349.49,-846.98 353.38,-838.49"/>
<polygon fill="black" stroke="black" points="356.44,-840.21 357.43,-829.66 350.08,-837.29 356.44,-840.21"/>
</g>
<!-- s1_combined_dq_issues -->
<g id="node3" class="node">
<title>s1_combined_dq_issues</title>
<polygon fill="#ccffcc" stroke="black" points="342.38,-708 342.38,-755.5 531.62,-755.5 531.62,-708 342.38,-708"/>
<text text-anchor="middle" x="437" y="-738.2" font-family="Courier,monospace" font-size="14.00">s1_combined_dq_issues</text>
<polyline fill="none" stroke="black" points="342.38,-731.75 531.62,-731.75"/>
<text text-anchor="middle" x="437" y="-714.45" font-family="Courier,monospace" font-size="14.00">Combined DQ Issues</text>
</g>
<!-- s1_dq_issues -->
<g id="node17" class="node">
<title>s1_dq_issues</title>
<path fill="#ffffcc" stroke="black" d="M478,-664.5C478,-664.5 396,-664.5 396,-664.5 390,-664.5 384,-658.5 384,-652.5 384,-652.5 384,-640.5 384,-640.5 384,-634.5 390,-628.5 396,-628.5 396,-628.5 478,-628.5 478,-628.5 484,-628.5 490,-634.5 490,-640.5 490,-640.5 490,-652.5 490,-652.5 490,-658.5 484,-664.5 478,-664.5"/>
<text text-anchor="middle" x="437" y="-641.45" font-family="Helvetica,sans-Serif" font-size="14.00">s1_dq_issues</text>
</g>
<!-- s1_combined_dq_issues&#45;&gt;s1_dq_issues -->
<g id="edge5" class="edge">
<title>s1_combined_dq_issues&#45;&gt;s1_dq_issues</title>
<path fill="none" stroke="black" d="M437,-707.56C437,-697.81 437,-686.37 437,-676.1"/>
<polygon fill="black" stroke="black" points="440.5,-676.27 437,-666.27 433.5,-676.27 440.5,-676.27"/>
</g>
<!-- s2_resolve_missing_values -->
<g id="node4" class="node">
<title>s2_resolve_missing_values</title>
<polygon fill="#ccffcc" stroke="black" points="708.12,-708 708.12,-755.5 979.88,-755.5 979.88,-708 708.12,-708"/>
<text text-anchor="middle" x="844" y="-738.2" font-family="Courier,monospace" font-size="14.00">s2_resolve_missing_values</text>
<polyline fill="none" stroke="black" points="708.12,-731.75 979.88,-731.75"/>
<text text-anchor="middle" x="844" y="-714.45" font-family="Courier,monospace" font-size="14.00">Remove or Impute Missing Values</text>
</g>
<!-- menu_s2_4 -->
<g id="node21" class="node">
<title>menu_s2_4</title>
<path fill="#ffffcc" stroke="black" d="M756.88,-622C756.88,-622 955.12,-622 955.12,-622 961.12,-622 967.12,-628 967.12,-634 967.12,-634 967.12,-659 967.12,-659 967.12,-665 961.12,-671 955.12,-671 955.12,-671 756.88,-671 756.88,-671 750.88,-671 744.88,-665 744.88,-659 744.88,-659 744.88,-634 744.88,-634 744.88,-628 750.88,-622 756.88,-622"/>
<text text-anchor="middle" x="856" y="-653.7" font-family="Helvetica,sans-Serif" font-size="14.00">menu_s2_4</text>
<polyline fill="none" stroke="black" points="744.88,-646.5 967.12,-646.5"/>
<text text-anchor="middle" x="856" y="-629.2" font-family="Helvetica,sans-Serif" font-size="14.00">s2_Clean_Missing_Values.ipynb</text>
</g>
<!-- s2_resolve_missing_values&#45;&gt;menu_s2_4 -->
<g id="edge8" class="edge">
<title>s2_resolve_missing_values&#45;&gt;menu_s2_4</title>
<path fill="none" stroke="black" d="M847.34,-707.56C848.46,-699.82 849.73,-691.01 850.94,-682.58"/>
<polygon fill="black" stroke="black" points="854.37,-683.33 852.33,-672.93 847.44,-682.33 854.37,-683.33"/>
</g>
<!-- s2_clean_physical_description -->
<g id="node5" class="node">
<title>s2_clean_physical_description</title>
<polygon fill="#ccffcc" stroke="black" points="24,-537.5 24,-585 304,-585 304,-537.5 24,-537.5"/>
<text text-anchor="middle" x="164" y="-567.7" font-family="Courier,monospace" font-size="14.00">s2_clean_physical_description</text>
<polyline fill="none" stroke="black" points="24,-561.25 304,-561.25"/>
<text text-anchor="middle" x="164" y="-543.95" font-family="Courier,monospace" font-size="14.00">Clean physical_descrption Column</text>
</g>
<!-- s2_openrefine_2 -->
<g id="node18" class="node">
<title>s2_openrefine_2</title>
<path fill="#ffffcc" stroke="black" d="M156.62,-451.5C156.62,-451.5 287.38,-451.5 287.38,-451.5 293.38,-451.5 299.38,-457.5 299.38,-463.5 299.38,-463.5 299.38,-488.5 299.38,-488.5 299.38,-494.5 293.38,-500.5 287.38,-500.5 287.38,-500.5 156.62,-500.5 156.62,-500.5 150.62,-500.5 144.62,-494.5 144.62,-488.5 144.62,-488.5 144.62,-463.5 144.62,-463.5 144.62,-457.5 150.62,-451.5 156.62,-451.5"/>
<text text-anchor="middle" x="222" y="-483.2" font-family="Helvetica,sans-Serif" font-size="14.00">s2_openrefine_2</text>
<polyline fill="none" stroke="black" points="144.62,-476 299.38,-476"/>
<text text-anchor="middle" x="222" y="-458.7" font-family="Helvetica,sans-Serif" font-size="14.00">s2_openrefine_2.json</text>
</g>
<!-- s2_clean_physical_description&#45;&gt;s2_openrefine_2 -->
<g id="edge11" class="edge">
<title>s2_clean_physical_description&#45;&gt;s2_openrefine_2</title>
<path fill="none" stroke="black" d="M180.16,-537.06C185.92,-528.79 192.52,-519.31 198.76,-510.36"/>
<polygon fill="black" stroke="black" points="201.61,-512.38 204.46,-502.18 195.87,-508.38 201.61,-512.38"/>
</g>
<!-- s2_clean_location_data -->
<g id="node6" class="node">
<title>s2_clean_location_data</title>
<polygon fill="#ccffcc" stroke="black" points="321.75,-537.5 321.75,-585 552.25,-585 552.25,-537.5 321.75,-537.5"/>
<text text-anchor="middle" x="437" y="-567.7" font-family="Courier,monospace" font-size="14.00">s2_clean_location_data</text>
<polyline fill="none" stroke="black" points="321.75,-561.25 552.25,-561.25"/>
<text text-anchor="middle" x="437" y="-543.95" font-family="Courier,monospace" font-size="14.00">Clean location_data Column</text>
</g>
<!-- s2_openrefine_3 -->
<g id="node19" class="node">
<title>s2_openrefine_3</title>
<path fill="#ffffcc" stroke="black" d="M388.62,-451.5C388.62,-451.5 519.38,-451.5 519.38,-451.5 525.38,-451.5 531.38,-457.5 531.38,-463.5 531.38,-463.5 531.38,-488.5 531.38,-488.5 531.38,-494.5 525.38,-500.5 519.38,-500.5 519.38,-500.5 388.62,-500.5 388.62,-500.5 382.62,-500.5 376.62,-494.5 376.62,-488.5 376.62,-488.5 376.62,-463.5 376.62,-463.5 376.62,-457.5 382.62,-451.5 388.62,-451.5"/>
<text text-anchor="middle" x="454" y="-483.2" font-family="Helvetica,sans-Serif" font-size="14.00">s2_openrefine_3</text>
<polyline fill="none" stroke="black" points="376.62,-476 531.38,-476"/>
<text text-anchor="middle" x="454" y="-458.7" font-family="Helvetica,sans-Serif" font-size="14.00">s2_openrefine_3.json</text>
</g>
<!-- s2_clean_location_data&#45;&gt;s2_openrefine_3 -->
<g id="edge14" class="edge">
<title>s2_clean_location_data&#45;&gt;s2_openrefine_3</title>
<path fill="none" stroke="black" d="M441.74,-537.06C443.32,-529.32 445.11,-520.51 446.84,-512.08"/>
<polygon fill="black" stroke="black" points="450.24,-512.92 448.81,-502.42 443.38,-511.51 450.24,-512.92"/>
</g>
<!-- s2_standardize_event -->
<g id="node7" class="node">
<title>s2_standardize_event</title>
<polygon fill="#ccffcc" stroke="black" points="570,-537.5 570,-585 784,-585 784,-537.5 570,-537.5"/>
<text text-anchor="middle" x="677" y="-567.7" font-family="Courier,monospace" font-size="14.00">s2_standardize_event</text>
<polyline fill="none" stroke="black" points="570,-561.25 784,-561.25"/>
<text text-anchor="middle" x="677" y="-543.95" font-family="Courier,monospace" font-size="14.00">Standardize event Column</text>
</g>
<!-- s2_openrefine_1 -->
<g id="node20" class="node">
<title>s2_openrefine_1</title>
<path fill="#ffffcc" stroke="black" d="M578.62,-451.5C578.62,-451.5 709.38,-451.5 709.38,-451.5 715.38,-451.5 721.38,-457.5 721.38,-463.5 721.38,-463.5 721.38,-488.5 721.38,-488.5 721.38,-494.5 715.38,-500.5 709.38,-500.5 709.38,-500.5 578.62,-500.5 578.62,-500.5 572.62,-500.5 566.62,-494.5 566.62,-488.5 566.62,-488.5 566.62,-463.5 566.62,-463.5 566.62,-457.5 572.62,-451.5 578.62,-451.5"/>
<text text-anchor="middle" x="644" y="-483.2" font-family="Helvetica,sans-Serif" font-size="14.00">s2_openrefine_1</text>
<polyline fill="none" stroke="black" points="566.62,-476 721.38,-476"/>
<text text-anchor="middle" x="644" y="-458.7" font-family="Helvetica,sans-Serif" font-size="14.00">s2_openrefine_1.json</text>
</g>
<!-- s2_standardize_event&#45;&gt;s2_openrefine_1 -->
<g id="edge17" class="edge">
<title>s2_standardize_event&#45;&gt;s2_openrefine_1</title>
<path fill="none" stroke="black" d="M667.81,-537.06C664.67,-529.14 661.09,-520.11 657.68,-511.5"/>
<polygon fill="black" stroke="black" points="660.98,-510.35 654.05,-502.34 654.48,-512.93 660.98,-510.35"/>
</g>
<!-- s2_merge -->
<g id="node8" class="node">
<title>s2_merge</title>
<polygon fill="#ccffcc" stroke="black" points="390,-366.25 390,-413.75 670,-413.75 670,-366.25 390,-366.25"/>
<text text-anchor="middle" x="530" y="-396.45" font-family="Courier,monospace" font-size="14.00">s2_merge</text>
<polyline fill="none" stroke="black" points="390,-390 670,-390"/>
<text text-anchor="middle" x="530" y="-372.7" font-family="Courier,monospace" font-size="14.00">Merge Open Refine Cleaning Tasks</text>
</g>
<!-- s2_combined_openrefine -->
<g id="node23" class="node">
<title>s2_combined_openrefine</title>
<path fill="#ffffcc" stroke="black" d="M590,-279.5C590,-279.5 774,-279.5 774,-279.5 780,-279.5 786,-285.5 786,-291.5 786,-291.5 786,-316.5 786,-316.5 786,-322.5 780,-328.5 774,-328.5 774,-328.5 590,-328.5 590,-328.5 584,-328.5 578,-322.5 578,-316.5 578,-316.5 578,-291.5 578,-291.5 578,-285.5 584,-279.5 590,-279.5"/>
<text text-anchor="middle" x="682" y="-311.2" font-family="Helvetica,sans-Serif" font-size="14.00">s2_combined_openrefine</text>
<polyline fill="none" stroke="black" points="578,-304 786,-304"/>
<text text-anchor="middle" x="682" y="-286.7" font-family="Helvetica,sans-Serif" font-size="14.00">file:combined_openrefine.json</text>
</g>
<!-- s2_merge&#45;&gt;s2_combined_openrefine -->
<g id="edge20" class="edge">
<title>s2_merge&#45;&gt;s2_combined_openrefine</title>
<path fill="none" stroke="black" d="M571.94,-365.82C589.52,-356.11 610.16,-344.7 628.79,-334.41"/>
<polygon fill="black" stroke="black" points="630.23,-337.61 637.29,-329.71 626.84,-331.48 630.23,-337.61"/>
</g>
<!-- s2_clean_missing_values -->
<g id="node9" class="node">
<title>s2_clean_missing_values</title>
<polygon fill="#ccffcc" stroke="black" points="802.12,-537.5 802.12,-585 1073.88,-585 1073.88,-537.5 802.12,-537.5"/>
<text text-anchor="middle" x="938" y="-567.7" font-family="Courier,monospace" font-size="14.00">s2_clean_missing_values</text>
<polyline fill="none" stroke="black" points="802.12,-561.25 1073.88,-561.25"/>
<text text-anchor="middle" x="938" y="-543.95" font-family="Courier,monospace" font-size="14.00">Remove or Impute Missing Values</text>
</g>
<!-- s2_menu_csv -->
<g id="node22" class="node">
<title>s2_menu_csv</title>
<path fill="#ffffcc" stroke="black" d="M818.5,-365.5C818.5,-365.5 945.5,-365.5 945.5,-365.5 951.5,-365.5 957.5,-371.5 957.5,-377.5 957.5,-377.5 957.5,-402.5 957.5,-402.5 957.5,-408.5 951.5,-414.5 945.5,-414.5 945.5,-414.5 818.5,-414.5 818.5,-414.5 812.5,-414.5 806.5,-408.5 806.5,-402.5 806.5,-402.5 806.5,-377.5 806.5,-377.5 806.5,-371.5 812.5,-365.5 818.5,-365.5"/>
<text text-anchor="middle" x="882" y="-397.2" font-family="Helvetica,sans-Serif" font-size="14.00">s2_menu_csv</text>
<polyline fill="none" stroke="black" points="806.5,-390 957.5,-390"/>
<text text-anchor="middle" x="882" y="-372.7" font-family="Helvetica,sans-Serif" font-size="14.00">file:menu_data_1.csv</text>
</g>
<!-- s2_clean_missing_values&#45;&gt;s2_menu_csv -->
<g id="edge24" class="edge">
<title>s2_clean_missing_values&#45;&gt;s2_menu_csv</title>
<path fill="none" stroke="black" d="M930.33,-537.07C920.8,-508.28 904.46,-458.89 893.45,-425.61"/>
<polygon fill="black" stroke="black" points="896.88,-424.82 890.41,-416.43 890.23,-427.02 896.88,-424.82"/>
</g>
<!-- s2_s2_combined_openrefine_cleaning -->
<g id="node10" class="node">
<title>s2_s2_combined_openrefine_cleaning</title>
<polygon fill="#ccffcc" stroke="black" points="709.75,-195 709.75,-242.5 1006.25,-242.5 1006.25,-195 709.75,-195"/>
<text text-anchor="middle" x="858" y="-225.2" font-family="Courier,monospace" font-size="14.00">s2_s2_combined_openrefine_cleaning</text>
<polyline fill="none" stroke="black" points="709.75,-218.75 1006.25,-218.75"/>
<text text-anchor="middle" x="858" y="-201.45" font-family="Courier,monospace" font-size="14.00">Final Cleaning of Dataset</text>
</g>
<!-- cleaned_menu -->
<g id="node12" class="node">
<title>cleaned_menu</title>
<path fill="#ffffcc" stroke="black" d="M726.12,-109C726.12,-109 853.88,-109 853.88,-109 859.88,-109 865.88,-115 865.88,-121 865.88,-121 865.88,-146 865.88,-146 865.88,-152 859.88,-158 853.88,-158 853.88,-158 726.12,-158 726.12,-158 720.12,-158 714.12,-152 714.12,-146 714.12,-146 714.12,-121 714.12,-121 714.12,-115 720.12,-109 726.12,-109"/>
<text text-anchor="middle" x="790" y="-140.7" font-family="Helvetica,sans-Serif" font-size="14.00">cleaned_menu</text>
<polyline fill="none" stroke="black" points="714.12,-133.5 865.88,-133.5"/>
<text text-anchor="middle" x="790" y="-116.2" font-family="Helvetica,sans-Serif" font-size="14.00">file:CleanedMenu.csv</text>
</g>
<!-- s2_s2_combined_openrefine_cleaning&#45;&gt;cleaned_menu -->
<g id="edge27" class="edge">
<title>s2_s2_combined_openrefine_cleaning&#45;&gt;cleaned_menu</title>
<path fill="none" stroke="black" d="M839.06,-194.56C832.16,-186.12 824.23,-176.4 816.78,-167.29"/>
<polygon fill="black" stroke="black" points="819.54,-165.14 810.51,-159.61 814.12,-169.57 819.54,-165.14"/>
</g>
<!-- open_refine_history -->
<g id="node13" class="node">
<title>open_refine_history</title>
<path fill="#ffffcc" stroke="black" d="M896.38,-109C896.38,-109 1061.62,-109 1061.62,-109 1067.62,-109 1073.62,-115 1073.62,-121 1073.62,-121 1073.62,-146 1073.62,-146 1073.62,-152 1067.62,-158 1061.62,-158 1061.62,-158 896.38,-158 896.38,-158 890.38,-158 884.38,-152 884.38,-146 884.38,-146 884.38,-121 884.38,-121 884.38,-115 890.38,-109 896.38,-109"/>
<text text-anchor="middle" x="979" y="-140.7" font-family="Helvetica,sans-Serif" font-size="14.00">open_refine_history</text>
<polyline fill="none" stroke="black" points="884.38,-133.5 1073.62,-133.5"/>
<text text-anchor="middle" x="979" y="-116.2" font-family="Helvetica,sans-Serif" font-size="14.00">file:OpenRefineHistory.json</text>
</g>
<!-- s2_s2_combined_openrefine_cleaning&#45;&gt;open_refine_history -->
<g id="edge28" class="edge">
<title>s2_s2_combined_openrefine_cleaning&#45;&gt;open_refine_history</title>
<path fill="none" stroke="black" d="M891.71,-194.56C905.13,-185.33 920.76,-174.57 935.05,-164.74"/>
<polygon fill="black" stroke="black" points="936.71,-167.84 942.97,-159.29 932.74,-162.08 936.71,-167.84"/>
</g>
<!-- s3_data_quality_check -->
<g id="node11" class="node">
<title>s3_data_quality_check</title>
<polygon fill="#ccffcc" stroke="black" points="695.38,-24.5 695.38,-72 884.62,-72 884.62,-24.5 695.38,-24.5"/>
<text text-anchor="middle" x="790" y="-54.7" font-family="Courier,monospace" font-size="14.00">s3_data_quality_check</text>
<polyline fill="none" stroke="black" points="695.38,-48.25 884.62,-48.25"/>
<text text-anchor="middle" x="790" y="-30.95" font-family="Courier,monospace" font-size="14.00">Data Quality Check</text>
</g>
<!-- cleaned_menu&#45;&gt;s3_data_quality_check -->
<g id="edge31" class="edge">
<title>cleaned_menu&#45;&gt;s3_data_quality_check</title>
<path fill="none" stroke="black" d="M790,-108.87C790,-101.09 790,-92.28 790,-83.86"/>
<polygon fill="black" stroke="black" points="793.5,-83.88 790,-73.88 786.5,-83.88 793.5,-83.88"/>
</g>
<!-- cleaned_menu_output_port -->
<g id="node25" class="node">
<title>cleaned_menu_output_port</title>
<ellipse fill="#ffffff" stroke="black" cx="1105" cy="-48.25" rx="7.2" ry="7.2"/>
</g>
<!-- cleaned_menu&#45;&gt;cleaned_menu_output_port -->
<g id="edge33" class="edge">
<title>cleaned_menu&#45;&gt;cleaned_menu_output_port</title>
<path fill="none" stroke="black" d="M866.36,-110.53C869.27,-109.82 872.16,-109.14 875,-108.5 967.8,-87.55 1003.79,-120.37 1086,-72.5 1089.6,-70.4 1092.81,-67.34 1095.52,-64.13"/>
<polygon fill="black" stroke="black" points="1098.29,-66.27 1101.16,-56.08 1092.56,-62.26 1098.29,-66.27"/>
</g>
<!-- open_refine_history_output_port -->
<g id="node26" class="node">
<title>open_refine_history_output_port</title>
<ellipse fill="#ffffff" stroke="black" cx="1137" cy="-48.25" rx="7.2" ry="7.2"/>
</g>
<!-- open_refine_history&#45;&gt;open_refine_history_output_port -->
<g id="edge34" class="edge">
<title>open_refine_history&#45;&gt;open_refine_history_output_port</title>
<path fill="none" stroke="black" d="M1057.51,-108.58C1079.49,-99.52 1102.43,-87.63 1121,-72.5 1123.62,-70.37 1125.98,-67.7 1128.04,-64.94"/>
<polygon fill="black" stroke="black" points="1130.93,-66.93 1133.28,-56.6 1125,-63.21 1130.93,-66.93"/>
</g>
<!-- menu_csv -->
<g id="node14" class="node">
<title>menu_csv</title>
<path fill="#ffffcc" stroke="black" d="M550.38,-949C550.38,-949 625.62,-949 625.62,-949 631.62,-949 637.62,-955 637.62,-961 637.62,-961 637.62,-986 637.62,-986 637.62,-992 631.62,-998 625.62,-998 625.62,-998 550.38,-998 550.38,-998 544.38,-998 538.38,-992 538.38,-986 538.38,-986 538.38,-961 538.38,-961 538.38,-955 544.38,-949 550.38,-949"/>
<text text-anchor="middle" x="588" y="-980.7" font-family="Helvetica,sans-Serif" font-size="14.00">menu_csv</text>
<polyline fill="none" stroke="black" points="538.38,-973.5 637.62,-973.5"/>
<text text-anchor="middle" x="588" y="-956.2" font-family="Helvetica,sans-Serif" font-size="14.00">file:menu.csv</text>
</g>
<!-- menu_csv&#45;&gt;s1_profile_dataset_python -->
<g id="edge2" class="edge">
<title>menu_csv&#45;&gt;s1_profile_dataset_python</title>
<path fill="none" stroke="black" d="M588,-948.87C588,-941.09 588,-932.28 588,-923.86"/>
<polygon fill="black" stroke="black" points="591.5,-923.88 588,-913.88 584.5,-923.88 591.5,-923.88"/>
</g>
<!-- menu_csv&#45;&gt;s1_profile_dataset_openrefine -->
<g id="edge4" class="edge">
<title>menu_csv&#45;&gt;s1_profile_dataset_openrefine</title>
<path fill="none" stroke="black" d="M538.14,-956.35C502.77,-944.89 454.47,-929.25 413.41,-915.95"/>
<polygon fill="black" stroke="black" points="414.63,-912.66 404.03,-912.91 412.47,-919.32 414.63,-912.66"/>
</g>
<!-- menu_csv&#45;&gt;s2_resolve_missing_values -->
<g id="edge9" class="edge">
<title>menu_csv&#45;&gt;s2_resolve_missing_values</title>
<path fill="none" stroke="black" d="M637.93,-957.87C665.16,-948.14 698.25,-933.28 723,-912.5 771.96,-871.41 809.23,-805.67 828.77,-766.11"/>
<polygon fill="black" stroke="black" points="831.83,-767.82 833.03,-757.29 825.52,-764.78 831.83,-767.82"/>
</g>
<!-- menu_csv&#45;&gt;s2_clean_physical_description -->
<g id="edge12" class="edge">
<title>menu_csv&#45;&gt;s2_clean_physical_description</title>
<path fill="none" stroke="black" d="M538.22,-972.75C438.78,-972.13 220.91,-964.67 172,-912.5 141.05,-879.49 164,-856.25 164,-811 164,-811 164,-811 164,-730.75 164,-684.3 164,-630.65 164,-596.6"/>
<polygon fill="black" stroke="black" points="167.5,-596.93 164,-586.93 160.5,-596.93 167.5,-596.93"/>
</g>
<!-- menu_csv&#45;&gt;s2_clean_location_data -->
<g id="edge15" class="edge">
<title>menu_csv&#45;&gt;s2_clean_location_data</title>
<path fill="none" stroke="black" d="M537.99,-972.22C442.64,-970.54 240.19,-961.2 194,-912.5 162.81,-879.61 184,-856.33 184,-811 184,-811 184,-811 184,-730.75 184,-656.71 259.99,-613.22 328.67,-589.02"/>
<polygon fill="black" stroke="black" points="329.41,-592.47 337.75,-585.94 327.16,-585.84 329.41,-592.47"/>
</g>
<!-- menu_csv&#45;&gt;s2_standardize_event -->
<g id="edge18" class="edge">
<title>menu_csv&#45;&gt;s2_standardize_event</title>
<path fill="none" stroke="black" d="M638.08,-960.9C663.72,-952.15 692.69,-937.27 708,-912.5 716.23,-899.18 691.37,-682.32 681.16,-596.66"/>
<polygon fill="black" stroke="black" points="684.64,-596.27 679.97,-586.75 677.69,-597.1 684.64,-596.27"/>
</g>
<!-- menu_csv&#45;&gt;s2_clean_missing_values -->
<g id="edge25" class="edge">
<title>menu_csv&#45;&gt;s2_clean_missing_values</title>
<path fill="none" stroke="black" d="M637.99,-963.78C747.52,-943.25 999,-887.76 999,-811 999,-811 999,-811 999,-730.75 999,-681.13 994.81,-667.41 976,-621.5 972.27,-612.4 967.13,-603.16 961.83,-594.77"/>
<polygon fill="black" stroke="black" points="964.89,-593.05 956.45,-586.64 959.05,-596.91 964.89,-593.05"/>
</g>
<!-- s1_dq_issues_python&#45;&gt;s1_combined_dq_issues -->
<g id="edge6" class="edge">
<title>s1_dq_issues_python&#45;&gt;s1_combined_dq_issues</title>
<path fill="none" stroke="black" d="M553.36,-791.51C535.48,-782.48 513.23,-771.24 492.99,-761.02"/>
<polygon fill="black" stroke="black" points="494.79,-758.01 484.28,-756.63 491.63,-764.26 494.79,-758.01"/>
</g>
<!-- s1_dq_issues_python&#45;&gt;s2_resolve_missing_values -->
<g id="edge10" class="edge">
<title>s1_dq_issues_python&#45;&gt;s2_resolve_missing_values</title>
<path fill="none" stroke="black" d="M646.73,-791.51C678.84,-781.94 719.27,-769.9 755.15,-759.21"/>
<polygon fill="black" stroke="black" points="756.09,-762.59 764.68,-756.38 754.09,-755.88 756.09,-762.59"/>
</g>
<!-- s1_dq_issues_openrefine&#45;&gt;s1_combined_dq_issues -->
<g id="edge7" class="edge">
<title>s1_dq_issues_openrefine&#45;&gt;s1_combined_dq_issues</title>
<path fill="none" stroke="black" d="M382.11,-791.7C389.69,-783.56 398.97,-773.59 407.73,-764.18"/>
<polygon fill="black" stroke="black" points="410.28,-766.58 414.54,-756.88 405.16,-761.81 410.28,-766.58"/>
</g>
<!-- s1_dq_issues&#45;&gt;s2_clean_physical_description -->
<g id="edge13" class="edge">
<title>s1_dq_issues&#45;&gt;s2_clean_physical_description</title>
<path fill="none" stroke="black" d="M383.71,-629.25C346.02,-617.76 294.64,-602.09 251.04,-588.79"/>
<polygon fill="black" stroke="black" points="252.17,-585.48 241.58,-585.91 250.13,-592.17 252.17,-585.48"/>
</g>
<!-- s1_dq_issues&#45;&gt;s2_clean_location_data -->
<g id="edge16" class="edge">
<title>s1_dq_issues&#45;&gt;s2_clean_location_data</title>
<path fill="none" stroke="black" d="M437,-628.25C437,-619.16 437,-607.67 437,-596.83"/>
<polygon fill="black" stroke="black" points="440.5,-596.99 437,-586.99 433.5,-596.99 440.5,-596.99"/>
</g>
<!-- s1_dq_issues&#45;&gt;s2_standardize_event -->
<g id="edge19" class="edge">
<title>s1_dq_issues&#45;&gt;s2_standardize_event</title>
<path fill="none" stroke="black" d="M487.31,-628.05C519.84,-616.77 562.82,-601.86 599.64,-589.08"/>
<polygon fill="black" stroke="black" points="600.62,-592.45 608.92,-585.86 598.33,-585.84 600.62,-592.45"/>
</g>
<!-- s2_openrefine_2&#45;&gt;s2_merge -->
<g id="edge21" class="edge">
<title>s2_openrefine_2&#45;&gt;s2_merge</title>
<path fill="none" stroke="black" d="M299.72,-453.8C340.46,-442.69 390.73,-428.98 433.89,-417.21"/>
<polygon fill="black" stroke="black" points="434.8,-420.59 443.53,-414.58 432.96,-413.84 434.8,-420.59"/>
</g>
<!-- s2_openrefine_3&#45;&gt;s2_merge -->
<g id="edge22" class="edge">
<title>s2_openrefine_3&#45;&gt;s2_merge</title>
<path fill="none" stroke="black" d="M475.58,-451.15C483.64,-442.24 492.92,-431.98 501.52,-422.48"/>
<polygon fill="black" stroke="black" points="504.03,-424.92 508.14,-415.16 498.84,-420.23 504.03,-424.92"/>
</g>
<!-- s2_openrefine_1&#45;&gt;s2_merge -->
<g id="edge23" class="edge">
<title>s2_openrefine_1&#45;&gt;s2_merge</title>
<path fill="none" stroke="black" d="M611.64,-451.15C598.8,-441.7 583.9,-430.72 570.37,-420.75"/>
<polygon fill="black" stroke="black" points="572.61,-418.05 562.48,-414.93 568.46,-423.68 572.61,-418.05"/>
</g>
<!-- menu_s2_4&#45;&gt;s2_clean_missing_values -->
<g id="edge26" class="edge">
<title>menu_s2_4&#45;&gt;s2_clean_missing_values</title>
<path fill="none" stroke="black" d="M879.28,-621.87C887.99,-613.02 898.03,-602.83 907.32,-593.4"/>
<polygon fill="black" stroke="black" points="909.64,-596.03 914.17,-586.45 904.66,-591.11 909.64,-596.03"/>
</g>
<!-- s2_menu_csv&#45;&gt;s2_s2_combined_openrefine_cleaning -->
<g id="edge29" class="edge">
<title>s2_menu_csv&#45;&gt;s2_s2_combined_openrefine_cleaning</title>
<path fill="none" stroke="black" d="M878.61,-365.11C874.52,-336.22 867.59,-287.37 862.91,-254.35"/>
<polygon fill="black" stroke="black" points="866.38,-253.88 861.51,-244.47 859.44,-254.87 866.38,-253.88"/>
</g>
<!-- s2_combined_openrefine&#45;&gt;s2_s2_combined_openrefine_cleaning -->
<g id="edge30" class="edge">
<title>s2_combined_openrefine&#45;&gt;s2_s2_combined_openrefine_cleaning</title>
<path fill="none" stroke="black" d="M732.43,-279.14C753.12,-269.36 777.22,-257.96 798.74,-247.78"/>
<polygon fill="black" stroke="black" points="800.16,-250.98 807.71,-243.54 797.17,-244.65 800.16,-250.98"/>
</g>
<!-- menu_csv_input_port -->
<g id="node24" class="node">
<title>menu_csv_input_port</title>
<ellipse fill="#ffffff" stroke="black" cx="588" cy="-1041.7" rx="7.2" ry="7.2"/>
</g>
<!-- menu_csv_input_port&#45;&gt;menu_csv -->
<g id="edge32" class="edge">
<title>menu_csv_input_port&#45;&gt;menu_csv</title>
<path fill="none" stroke="black" d="M588,-1034.11C588,-1028.2 588,-1019.05 588,-1009.67"/>
<polygon fill="black" stroke="black" points="591.5,-1009.84 588,-999.84 584.5,-1009.84 591.5,-1009.84"/>
</g>
</g>
</svg>
