<?xml version="1.0" encoding="UTF-8" standalone="no"?>
<!DOCTYPE svg PUBLIC "-//W3C//DTD SVG 1.1//EN"
 "http://www.w3.org/Graphics/SVG/1.1/DTD/svg11.dtd">
<!-- Generated by graphviz version 12.0.0 (20240704.0754)
 -->
<!-- Title: Workflow Pages: 1 -->
<svg width="1024pt" height="827pt"
 viewBox="0.00 0.00 1024.00 827.05" xmlns="http://www.w3.org/2000/svg" xmlns:xlink="http://www.w3.org/1999/xlink">
<g id="graph0" class="graph" transform="scale(1 1) rotate(0) translate(4 823.05)">
<title>Workflow</title>
<polygon fill="white" stroke="none" points="-4,4 -4,-823.05 1020,-823.05 1020,4 -4,4"/>
<text text-anchor="middle" x="508" y="-797.95" font-family="Courier,monospace" font-size="18.00">CS512_Phase_II</text>
<g id="clust1" class="cluster">
<title>cluster_workflow_box_outer</title>
<polygon fill="none" stroke="black" stroke-width="2" points="8,-34.4 8,-756.4 1008,-756.4 1008,-34.4 8,-34.4"/>
</g>
<g id="clust2" class="cluster">
<title>cluster_workflow_box_inner</title>
<polygon fill="none" stroke="white" stroke-width="2" points="16,-42.4 16,-748.4 1000,-748.4 1000,-42.4 16,-42.4"/>
</g>
<!-- s1_openrefine_processing -->
<g id="node1" class="node">
<title>s1_openrefine_processing</title>
<polygon fill="#ccffcc" stroke="black" points="355.62,-606.4 355.62,-653.9 726.38,-653.9 726.38,-606.4 355.62,-606.4"/>
<text text-anchor="middle" x="541" y="-636.6" font-family="Courier,monospace" font-size="14.00">s1_openrefine_processing</text>
<polyline fill="none" stroke="black" points="355.62,-630.15 726.38,-630.15"/>
<text text-anchor="middle" x="541" y="-612.85" font-family="Courier,monospace" font-size="14.00">OpenRefine Cleaning of physical_description</text>
</g>
<!-- menu_s1 -->
<g id="node10" class="node">
<title>menu_s1</title>
<path fill="#ffffcc" stroke="black" d="M566.62,-569.9C566.62,-569.9 515.38,-569.9 515.38,-569.9 509.38,-569.9 503.38,-563.9 503.38,-557.9 503.38,-557.9 503.38,-545.9 503.38,-545.9 503.38,-539.9 509.38,-533.9 515.38,-533.9 515.38,-533.9 566.62,-533.9 566.62,-533.9 572.62,-533.9 578.62,-539.9 578.62,-545.9 578.62,-545.9 578.62,-557.9 578.62,-557.9 578.62,-563.9 572.62,-569.9 566.62,-569.9"/>
<text text-anchor="middle" x="541" y="-546.85" font-family="Helvetica,sans-Serif" font-size="14.00">menu_s1</text>
</g>
<!-- s1_openrefine_processing&#45;&gt;menu_s1 -->
<g id="edge1" class="edge">
<title>s1_openrefine_processing&#45;&gt;menu_s1</title>
<path fill="none" stroke="black" d="M541,-606.27C541,-598.49 541,-589.7 541,-581.52"/>
<polygon fill="black" stroke="black" points="544.5,-581.7 541,-571.7 537.5,-581.7 544.5,-581.7"/>
</g>
<!-- s2_analyze_dq_issues -->
<g id="node2" class="node">
<title>s2_analyze_dq_issues</title>
<polygon fill="#ccffcc" stroke="black" points="450.5,-449.9 450.5,-497.4 631.5,-497.4 631.5,-449.9 450.5,-449.9"/>
<text text-anchor="middle" x="541" y="-480.1" font-family="Courier,monospace" font-size="14.00">s2_analyze_dq_issues</text>
<polyline fill="none" stroke="black" points="450.5,-473.65 631.5,-473.65"/>
<text text-anchor="middle" x="541" y="-456.35" font-family="Courier,monospace" font-size="14.00">Analyze DQ Issues</text>
</g>
<!-- dq_issues -->
<g id="node11" class="node">
<title>dq_issues</title>
<path fill="#ffffcc" stroke="black" d="M570,-413.4C570,-413.4 512,-413.4 512,-413.4 506,-413.4 500,-407.4 500,-401.4 500,-401.4 500,-389.4 500,-389.4 500,-383.4 506,-377.4 512,-377.4 512,-377.4 570,-377.4 570,-377.4 576,-377.4 582,-383.4 582,-389.4 582,-389.4 582,-401.4 582,-401.4 582,-407.4 576,-413.4 570,-413.4"/>
<text text-anchor="middle" x="541" y="-390.35" font-family="Helvetica,sans-Serif" font-size="14.00">dq_issues</text>
</g>
<!-- s2_analyze_dq_issues&#45;&gt;dq_issues -->
<g id="edge3" class="edge">
<title>s2_analyze_dq_issues&#45;&gt;dq_issues</title>
<path fill="none" stroke="black" d="M541,-449.77C541,-441.99 541,-433.2 541,-425.02"/>
<polygon fill="black" stroke="black" points="544.5,-425.2 541,-415.2 537.5,-425.2 544.5,-425.2"/>
</g>
<!-- s3_process_physical_description_2 -->
<g id="node3" class="node">
<title>s3_process_physical_description_2</title>
<polygon fill="#ccffcc" stroke="black" points="23.88,-293.4 23.88,-340.9 312.12,-340.9 312.12,-293.4 23.88,-293.4"/>
<text text-anchor="middle" x="168" y="-323.6" font-family="Courier,monospace" font-size="14.00">s3_process_physical_description_2</text>
<polyline fill="none" stroke="black" points="23.88,-317.15 312.12,-317.15"/>
<text text-anchor="middle" x="168" y="-299.85" font-family="Courier,monospace" font-size="14.00">Clean physical_descrption Phase 2</text>
</g>
<!-- menu_s3_1 -->
<g id="node12" class="node">
<title>menu_s3_1</title>
<path fill="#ffffcc" stroke="black" d="M290.88,-256.9C290.88,-256.9 223.12,-256.9 223.12,-256.9 217.12,-256.9 211.12,-250.9 211.12,-244.9 211.12,-244.9 211.12,-232.9 211.12,-232.9 211.12,-226.9 217.12,-220.9 223.12,-220.9 223.12,-220.9 290.88,-220.9 290.88,-220.9 296.88,-220.9 302.88,-226.9 302.88,-232.9 302.88,-232.9 302.88,-244.9 302.88,-244.9 302.88,-250.9 296.88,-256.9 290.88,-256.9"/>
<text text-anchor="middle" x="257" y="-233.85" font-family="Helvetica,sans-Serif" font-size="14.00">menu_s3_1</text>
</g>
<!-- s3_process_physical_description_2&#45;&gt;menu_s3_1 -->
<g id="edge5" class="edge">
<title>s3_process_physical_description_2&#45;&gt;menu_s3_1</title>
<path fill="none" stroke="black" d="M194.7,-293.27C205.26,-284.22 217.42,-273.81 228.18,-264.59"/>
<polygon fill="black" stroke="black" points="230.36,-267.33 235.68,-258.17 225.8,-262.02 230.36,-267.33"/>
</g>
<!-- s3_clean_location_data -->
<g id="node4" class="node">
<title>s3_clean_location_data</title>
<polygon fill="#ccffcc" stroke="black" points="330.25,-293.4 330.25,-340.9 527.75,-340.9 527.75,-293.4 330.25,-293.4"/>
<text text-anchor="middle" x="429" y="-323.6" font-family="Courier,monospace" font-size="14.00">s3_clean_location_data</text>
<polyline fill="none" stroke="black" points="330.25,-317.15 527.75,-317.15"/>
<text text-anchor="middle" x="429" y="-299.85" font-family="Courier,monospace" font-size="14.00">Clean location_data</text>
</g>
<!-- menu_s3_2 -->
<g id="node13" class="node">
<title>menu_s3_2</title>
<path fill="#ffffcc" stroke="black" d="M490.88,-256.9C490.88,-256.9 423.12,-256.9 423.12,-256.9 417.12,-256.9 411.12,-250.9 411.12,-244.9 411.12,-244.9 411.12,-232.9 411.12,-232.9 411.12,-226.9 417.12,-220.9 423.12,-220.9 423.12,-220.9 490.88,-220.9 490.88,-220.9 496.88,-220.9 502.88,-226.9 502.88,-232.9 502.88,-232.9 502.88,-244.9 502.88,-244.9 502.88,-250.9 496.88,-256.9 490.88,-256.9"/>
<text text-anchor="middle" x="457" y="-233.85" font-family="Helvetica,sans-Serif" font-size="14.00">menu_s3_2</text>
</g>
<!-- s3_clean_location_data&#45;&gt;menu_s3_2 -->
<g id="edge8" class="edge">
<title>s3_clean_location_data&#45;&gt;menu_s3_2</title>
<path fill="none" stroke="black" d="M437.4,-293.27C440.32,-285.31 443.64,-276.29 446.7,-267.95"/>
<polygon fill="black" stroke="black" points="449.97,-269.2 450.13,-258.61 443.4,-266.79 449.97,-269.2"/>
</g>
<!-- s3_standardize_event -->
<g id="node5" class="node">
<title>s3_standardize_event</title>
<polygon fill="#ccffcc" stroke="black" points="546,-293.4 546,-340.9 760,-340.9 760,-293.4 546,-293.4"/>
<text text-anchor="middle" x="653" y="-323.6" font-family="Courier,monospace" font-size="14.00">s3_standardize_event</text>
<polyline fill="none" stroke="black" points="546,-317.15 760,-317.15"/>
<text text-anchor="middle" x="653" y="-299.85" font-family="Courier,monospace" font-size="14.00">Standardize event Column</text>
</g>
<!-- menu_s3_3 -->
<g id="node14" class="node">
<title>menu_s3_3</title>
<path fill="#ffffcc" stroke="black" d="M657.88,-256.9C657.88,-256.9 590.12,-256.9 590.12,-256.9 584.12,-256.9 578.12,-250.9 578.12,-244.9 578.12,-244.9 578.12,-232.9 578.12,-232.9 578.12,-226.9 584.12,-220.9 590.12,-220.9 590.12,-220.9 657.88,-220.9 657.88,-220.9 663.88,-220.9 669.88,-226.9 669.88,-232.9 669.88,-232.9 669.88,-244.9 669.88,-244.9 669.88,-250.9 663.88,-256.9 657.88,-256.9"/>
<text text-anchor="middle" x="624" y="-233.85" font-family="Helvetica,sans-Serif" font-size="14.00">menu_s3_3</text>
</g>
<!-- s3_standardize_event&#45;&gt;menu_s3_3 -->
<g id="edge11" class="edge">
<title>s3_standardize_event&#45;&gt;menu_s3_3</title>
<path fill="none" stroke="black" d="M644.3,-293.27C641.24,-285.22 637.76,-276.08 634.56,-267.67"/>
<polygon fill="black" stroke="black" points="637.94,-266.7 631.11,-258.6 631.4,-269.19 637.94,-266.7"/>
</g>
<!-- s3_remove_missing_values -->
<g id="node6" class="node">
<title>s3_remove_missing_values</title>
<polygon fill="#ccffcc" stroke="black" points="778,-293.4 778,-340.9 992,-340.9 992,-293.4 778,-293.4"/>
<text text-anchor="middle" x="885" y="-323.6" font-family="Courier,monospace" font-size="14.00">s3_remove_missing_values</text>
<polyline fill="none" stroke="black" points="778,-317.15 992,-317.15"/>
<text text-anchor="middle" x="885" y="-299.85" font-family="Courier,monospace" font-size="14.00">Analyze DQ Issues</text>
</g>
<!-- menu_s3_4 -->
<g id="node15" class="node">
<title>menu_s3_4</title>
<path fill="#ffffcc" stroke="black" d="M856.88,-256.9C856.88,-256.9 789.12,-256.9 789.12,-256.9 783.12,-256.9 777.12,-250.9 777.12,-244.9 777.12,-244.9 777.12,-232.9 777.12,-232.9 777.12,-226.9 783.12,-220.9 789.12,-220.9 789.12,-220.9 856.88,-220.9 856.88,-220.9 862.88,-220.9 868.88,-226.9 868.88,-232.9 868.88,-232.9 868.88,-244.9 868.88,-244.9 868.88,-250.9 862.88,-256.9 856.88,-256.9"/>
<text text-anchor="middle" x="823" y="-233.85" font-family="Helvetica,sans-Serif" font-size="14.00">menu_s3_4</text>
</g>
<!-- s3_remove_missing_values&#45;&gt;menu_s3_4 -->
<g id="edge14" class="edge">
<title>s3_remove_missing_values&#45;&gt;menu_s3_4</title>
<path fill="none" stroke="black" d="M866.4,-293.27C859.41,-284.68 851.41,-274.84 844.21,-265.98"/>
<polygon fill="black" stroke="black" points="847.03,-263.91 838.01,-258.36 841.6,-268.33 847.03,-263.91"/>
</g>
<!-- s3_merge -->
<g id="node7" class="node">
<title>s3_merge</title>
<polygon fill="#ccffcc" stroke="black" points="449.5,-136.9 449.5,-184.4 630.5,-184.4 630.5,-136.9 449.5,-136.9"/>
<text text-anchor="middle" x="540" y="-167.1" font-family="Courier,monospace" font-size="14.00">s3_merge</text>
<polyline fill="none" stroke="black" points="449.5,-160.65 630.5,-160.65"/>
<text text-anchor="middle" x="540" y="-143.35" font-family="Courier,monospace" font-size="14.00">Merge Cleaning Tasks</text>
</g>
<!-- menu_cleaned -->
<g id="node8" class="node">
<title>menu_cleaned</title>
<path fill="#ffffcc" stroke="black" d="M473.12,-50.9C473.12,-50.9 606.88,-50.9 606.88,-50.9 612.88,-50.9 618.88,-56.9 618.88,-62.9 618.88,-62.9 618.88,-87.9 618.88,-87.9 618.88,-93.9 612.88,-99.9 606.88,-99.9 606.88,-99.9 473.12,-99.9 473.12,-99.9 467.12,-99.9 461.12,-93.9 461.12,-87.9 461.12,-87.9 461.12,-62.9 461.12,-62.9 461.12,-56.9 467.12,-50.9 473.12,-50.9"/>
<text text-anchor="middle" x="540" y="-82.6" font-family="Helvetica,sans-Serif" font-size="14.00">menu_cleaned</text>
<polyline fill="none" stroke="black" points="461.12,-75.4 618.88,-75.4"/>
<text text-anchor="middle" x="540" y="-58.1" font-family="Helvetica,sans-Serif" font-size="14.00">file:menu_cleaned.csv</text>
</g>
<!-- s3_merge&#45;&gt;menu_cleaned -->
<g id="edge17" class="edge">
<title>s3_merge&#45;&gt;menu_cleaned</title>
<path fill="none" stroke="black" d="M540,-136.46C540,-128.81 540,-120.11 540,-111.77"/>
<polygon fill="black" stroke="black" points="543.5,-111.85 540,-101.85 536.5,-111.85 543.5,-111.85"/>
</g>
<!-- menu_cleaned_output_port -->
<g id="node17" class="node">
<title>menu_cleaned_output_port</title>
<ellipse fill="#ffffff" stroke="black" cx="540" cy="-7.2" rx="7.2" ry="7.2"/>
</g>
<!-- menu_cleaned&#45;&gt;menu_cleaned_output_port -->
<g id="edge23" class="edge">
<title>menu_cleaned&#45;&gt;menu_cleaned_output_port</title>
<path fill="none" stroke="black" d="M540,-50.5C540,-42.44 540,-33.58 540,-26.07"/>
<polygon fill="black" stroke="black" points="543.5,-26.27 540,-16.27 536.5,-26.27 543.5,-26.27"/>
</g>
<!-- menu_csv -->
<g id="node9" class="node">
<title>menu_csv</title>
<path fill="#ffffcc" stroke="black" d="M503.38,-690.9C503.38,-690.9 578.62,-690.9 578.62,-690.9 584.62,-690.9 590.62,-696.9 590.62,-702.9 590.62,-702.9 590.62,-727.9 590.62,-727.9 590.62,-733.9 584.62,-739.9 578.62,-739.9 578.62,-739.9 503.38,-739.9 503.38,-739.9 497.38,-739.9 491.38,-733.9 491.38,-727.9 491.38,-727.9 491.38,-702.9 491.38,-702.9 491.38,-696.9 497.38,-690.9 503.38,-690.9"/>
<text text-anchor="middle" x="541" y="-722.6" font-family="Helvetica,sans-Serif" font-size="14.00">menu_csv</text>
<polyline fill="none" stroke="black" points="491.38,-715.4 590.62,-715.4"/>
<text text-anchor="middle" x="541" y="-698.1" font-family="Helvetica,sans-Serif" font-size="14.00">file:menu.csv</text>
</g>
<!-- menu_csv&#45;&gt;s1_openrefine_processing -->
<g id="edge2" class="edge">
<title>menu_csv&#45;&gt;s1_openrefine_processing</title>
<path fill="none" stroke="black" d="M541,-690.77C541,-682.99 541,-674.18 541,-665.76"/>
<polygon fill="black" stroke="black" points="544.5,-665.78 541,-655.78 537.5,-665.78 544.5,-665.78"/>
</g>
<!-- menu_s1&#45;&gt;s2_analyze_dq_issues -->
<g id="edge4" class="edge">
<title>menu_s1&#45;&gt;s2_analyze_dq_issues</title>
<path fill="none" stroke="black" d="M541,-533.6C541,-526.29 541,-517.5 541,-508.98"/>
<polygon fill="black" stroke="black" points="544.5,-509.18 541,-499.18 537.5,-509.18 544.5,-509.18"/>
</g>
<!-- menu_s1&#45;&gt;s3_process_physical_description_2 -->
<g id="edge6" class="edge">
<title>menu_s1&#45;&gt;s3_process_physical_description_2</title>
<path fill="none" stroke="black" d="M502.9,-536.77C478.33,-527.07 446.02,-513.22 419,-497.9 338.4,-452.21 252.21,-386.27 204.72,-348.26"/>
<polygon fill="black" stroke="black" points="207.2,-345.76 197.21,-342.22 202.81,-351.21 207.2,-345.76"/>
</g>
<!-- menu_s1&#45;&gt;s3_clean_location_data -->
<g id="edge9" class="edge">
<title>menu_s1&#45;&gt;s3_clean_location_data</title>
<path fill="none" stroke="black" d="M503.19,-540.65C481.5,-532.7 455.9,-519.32 442,-497.9 413.59,-454.14 416.68,-391.12 422.28,-352.5"/>
<polygon fill="black" stroke="black" points="425.7,-353.27 423.83,-342.84 418.79,-352.16 425.7,-353.27"/>
</g>
<!-- menu_s1&#45;&gt;s3_standardize_event -->
<g id="edge12" class="edge">
<title>menu_s1&#45;&gt;s3_standardize_event</title>
<path fill="none" stroke="black" d="M578.98,-540.87C600.95,-532.97 626.95,-519.58 641,-497.9 669.36,-454.14 665.87,-391.12 659.98,-352.5"/>
<polygon fill="black" stroke="black" points="663.47,-352.12 658.36,-342.84 656.57,-353.28 663.47,-352.12"/>
</g>
<!-- menu_s1&#45;&gt;s3_remove_missing_values -->
<g id="edge15" class="edge">
<title>menu_s1&#45;&gt;s3_remove_missing_values</title>
<path fill="none" stroke="black" d="M579.08,-535.79C601.78,-526.15 630.8,-512.71 655,-497.9 729.41,-452.36 807.74,-386.79 851.08,-348.72"/>
<polygon fill="black" stroke="black" points="853.22,-351.5 858.39,-342.26 848.58,-346.25 853.22,-351.5"/>
</g>
<!-- dq_issues&#45;&gt;s3_process_physical_description_2 -->
<g id="edge7" class="edge">
<title>dq_issues&#45;&gt;s3_process_physical_description_2</title>
<path fill="none" stroke="black" d="M499.66,-385.95C449.95,-375.79 364.25,-358.27 292.42,-343.58"/>
<polygon fill="black" stroke="black" points="293.45,-340.22 282.95,-341.65 292.05,-347.08 293.45,-340.22"/>
</g>
<!-- dq_issues&#45;&gt;s3_clean_location_data -->
<g id="edge10" class="edge">
<title>dq_issues&#45;&gt;s3_clean_location_data</title>
<path fill="none" stroke="black" d="M515.3,-376.91C502.59,-368.25 486.89,-357.56 472.39,-347.69"/>
<polygon fill="black" stroke="black" points="474.56,-344.93 464.32,-342.2 470.62,-350.72 474.56,-344.93"/>
</g>
<!-- dq_issues&#45;&gt;s3_standardize_event -->
<g id="edge13" class="edge">
<title>dq_issues&#45;&gt;s3_standardize_event</title>
<path fill="none" stroke="black" d="M566.7,-376.91C579.41,-368.25 595.11,-357.56 609.61,-347.69"/>
<polygon fill="black" stroke="black" points="611.38,-350.72 617.68,-342.2 607.44,-344.93 611.38,-350.72"/>
</g>
<!-- dq_issues&#45;&gt;s3_remove_missing_values -->
<g id="edge16" class="edge">
<title>dq_issues&#45;&gt;s3_remove_missing_values</title>
<path fill="none" stroke="black" d="M582.49,-385.2C628.53,-375 704.81,-358.09 769.26,-343.81"/>
<polygon fill="black" stroke="black" points="769.83,-347.26 778.84,-341.68 768.32,-340.43 769.83,-347.26"/>
</g>
<!-- menu_s3_1&#45;&gt;s3_merge -->
<g id="edge18" class="edge">
<title>menu_s3_1&#45;&gt;s3_merge</title>
<path fill="none" stroke="black" d="M303.1,-225.48C340.88,-215.3 395.64,-200.55 443,-187.79"/>
<polygon fill="black" stroke="black" points="443.71,-191.22 452.46,-185.24 441.89,-184.46 443.71,-191.22"/>
</g>
<!-- menu_s3_2&#45;&gt;s3_merge -->
<g id="edge19" class="edge">
<title>menu_s3_2&#45;&gt;s3_merge</title>
<path fill="none" stroke="black" d="M475.83,-220.6C484.97,-212.21 496.21,-201.88 506.73,-192.22"/>
<polygon fill="black" stroke="black" points="508.83,-195.03 513.83,-185.69 504.1,-189.88 508.83,-195.03"/>
</g>
<!-- menu_s3_3&#45;&gt;s3_merge -->
<g id="edge20" class="edge">
<title>menu_s3_3&#45;&gt;s3_merge</title>
<path fill="none" stroke="black" d="M604.94,-220.6C595.7,-212.21 584.31,-201.88 573.68,-192.22"/>
<polygon fill="black" stroke="black" points="576.24,-189.82 566.48,-185.69 571.53,-195 576.24,-189.82"/>
</g>
<!-- menu_s3_4&#45;&gt;s3_merge -->
<g id="edge21" class="edge">
<title>menu_s3_4&#45;&gt;s3_merge</title>
<path fill="none" stroke="black" d="M776.9,-225.48C739.12,-215.3 684.36,-200.55 637,-187.79"/>
<polygon fill="black" stroke="black" points="638.11,-184.46 627.54,-185.24 636.29,-191.22 638.11,-184.46"/>
</g>
<!-- menu_csv_input_port -->
<g id="node16" class="node">
<title>menu_csv_input_port</title>
<ellipse fill="#ffffff" stroke="black" cx="541" cy="-783.6" rx="7.2" ry="7.2"/>
</g>
<!-- menu_csv_input_port&#45;&gt;menu_csv -->
<g id="edge22" class="edge">
<title>menu_csv_input_port&#45;&gt;menu_csv</title>
<path fill="none" stroke="black" d="M541,-776.01C541,-770.1 541,-760.95 541,-751.57"/>
<polygon fill="black" stroke="black" points="544.5,-751.74 541,-741.74 537.5,-751.74 544.5,-751.74"/>
</g>
</g>
</svg>
