<?xml version="1.0" encoding="UTF-8" standalone="no"?>
<!DOCTYPE svg PUBLIC "-//W3C//DTD SVG 1.1//EN"
 "http://www.w3.org/Graphics/SVG/1.1/DTD/svg11.dtd">
<!-- Generated by graphviz version 12.0.0 (20240704.0754)
 -->
<!-- Title: Workflow Pages: 1 -->
<svg width="1172pt" height="1198pt"
 viewBox="0.00 0.00 1172.20 1197.55" xmlns="http://www.w3.org/2000/svg" xmlns:xlink="http://www.w3.org/1999/xlink">
<g id="graph0" class="graph" transform="scale(1 1) rotate(0) translate(4 1193.55)">
<title>Workflow</title>
<polygon fill="white" stroke="none" points="-4,4 -4,-1193.55 1168.2,-1193.55 1168.2,4 -4,4"/>
<text text-anchor="middle" x="582.1" y="-1168.45" font-family="Courier,monospace" font-size="18.00">nypl_menu_cleaning_workflow</text>
<g id="clust1" class="cluster">
<title>cluster_workflow_box_outer</title>
<polygon fill="none" stroke="black" stroke-width="2" points="8,-34.4 8,-1126.9 1110,-1126.9 1110,-34.4 8,-34.4"/>
</g>
<g id="clust2" class="cluster">
<title>cluster_workflow_box_inner</title>
<polygon fill="none" stroke="white" stroke-width="2" points="16,-42.4 16,-1118.9 1102,-1118.9 1102,-42.4 16,-42.4"/>
</g>
<!-- s1_profile_dataset_python -->
<g id="node1" class="node">
<title>s1_profile_dataset_python</title>
<polygon fill="#ccffcc" stroke="black" points="443.88,-976.9 443.88,-1024.4 666.12,-1024.4 666.12,-976.9 443.88,-976.9"/>
<text text-anchor="middle" x="555" y="-1007.1" font-family="Courier,monospace" font-size="14.00">s1_profile_dataset_python</text>
<polyline fill="none" stroke="black" points="443.88,-1000.65 666.12,-1000.65"/>
<text text-anchor="middle" x="555" y="-983.35" font-family="Courier,monospace" font-size="14.00">Python Dataset Profiling</text>
</g>
<!-- s1_dq_issues_python -->
<g id="node20" class="node">
<title>s1_dq_issues_python</title>
<path fill="#ffffcc" stroke="black" d="M621.12,-940.4C621.12,-940.4 488.88,-940.4 488.88,-940.4 482.88,-940.4 476.88,-934.4 476.88,-928.4 476.88,-928.4 476.88,-916.4 476.88,-916.4 476.88,-910.4 482.88,-904.4 488.88,-904.4 488.88,-904.4 621.12,-904.4 621.12,-904.4 627.12,-904.4 633.12,-910.4 633.12,-916.4 633.12,-916.4 633.12,-928.4 633.12,-928.4 633.12,-934.4 627.12,-940.4 621.12,-940.4"/>
<text text-anchor="middle" x="555" y="-917.35" font-family="Helvetica,sans-Serif" font-size="14.00">s1_dq_issues_python</text>
</g>
<!-- s1_profile_dataset_python&#45;&gt;s1_dq_issues_python -->
<g id="edge1" class="edge">
<title>s1_profile_dataset_python&#45;&gt;s1_dq_issues_python</title>
<path fill="none" stroke="black" d="M555,-976.77C555,-968.99 555,-960.2 555,-952.02"/>
<polygon fill="black" stroke="black" points="558.5,-952.2 555,-942.2 551.5,-952.2 558.5,-952.2"/>
</g>
<!-- s1_profile_dataset_openrefine -->
<g id="node2" class="node">
<title>s1_profile_dataset_openrefine</title>
<polygon fill="#ccffcc" stroke="black" points="704.38,-976.9 704.38,-1024.4 959.62,-1024.4 959.62,-976.9 704.38,-976.9"/>
<text text-anchor="middle" x="832" y="-1007.1" font-family="Courier,monospace" font-size="14.00">s1_profile_dataset_openrefine</text>
<polyline fill="none" stroke="black" points="704.38,-1000.65 959.62,-1000.65"/>
<text text-anchor="middle" x="832" y="-983.35" font-family="Courier,monospace" font-size="14.00">OpenRefine Dataset Profiling</text>
</g>
<!-- s1_dq_issues_openrefine -->
<g id="node21" class="node">
<title>s1_dq_issues_openrefine</title>
<path fill="#ffffcc" stroke="black" d="M894.25,-940.4C894.25,-940.4 735.75,-940.4 735.75,-940.4 729.75,-940.4 723.75,-934.4 723.75,-928.4 723.75,-928.4 723.75,-916.4 723.75,-916.4 723.75,-910.4 729.75,-904.4 735.75,-904.4 735.75,-904.4 894.25,-904.4 894.25,-904.4 900.25,-904.4 906.25,-910.4 906.25,-916.4 906.25,-916.4 906.25,-928.4 906.25,-928.4 906.25,-934.4 900.25,-940.4 894.25,-940.4"/>
<text text-anchor="middle" x="815" y="-917.35" font-family="Helvetica,sans-Serif" font-size="14.00">s1_dq_issues_openrefine</text>
</g>
<!-- s1_profile_dataset_openrefine&#45;&gt;s1_dq_issues_openrefine -->
<g id="edge3" class="edge">
<title>s1_profile_dataset_openrefine&#45;&gt;s1_dq_issues_openrefine</title>
<path fill="none" stroke="black" d="M826.9,-976.77C825.14,-968.9 823.16,-959.99 821.32,-951.74"/>
<polygon fill="black" stroke="black" points="824.78,-951.16 819.18,-942.16 817.94,-952.68 824.78,-951.16"/>
</g>
<!-- s1_combined_dq_issues -->
<g id="node3" class="node">
<title>s1_combined_dq_issues</title>
<polygon fill="#ccffcc" stroke="black" points="704.38,-820.4 704.38,-867.9 893.62,-867.9 893.62,-820.4 704.38,-820.4"/>
<text text-anchor="middle" x="799" y="-850.6" font-family="Courier,monospace" font-size="14.00">s1_combined_dq_issues</text>
<polyline fill="none" stroke="black" points="704.38,-844.15 893.62,-844.15"/>
<text text-anchor="middle" x="799" y="-826.85" font-family="Courier,monospace" font-size="14.00">Combined DQ Issues</text>
</g>
<!-- s1_dq_issues -->
<g id="node22" class="node">
<title>s1_dq_issues</title>
<path fill="#ffffcc" stroke="black" d="M819,-776.9C819,-776.9 737,-776.9 737,-776.9 731,-776.9 725,-770.9 725,-764.9 725,-764.9 725,-752.9 725,-752.9 725,-746.9 731,-740.9 737,-740.9 737,-740.9 819,-740.9 819,-740.9 825,-740.9 831,-746.9 831,-752.9 831,-752.9 831,-764.9 831,-764.9 831,-770.9 825,-776.9 819,-776.9"/>
<text text-anchor="middle" x="778" y="-753.85" font-family="Helvetica,sans-Serif" font-size="14.00">s1_dq_issues</text>
</g>
<!-- s1_combined_dq_issues&#45;&gt;s1_dq_issues -->
<g id="edge5" class="edge">
<title>s1_combined_dq_issues&#45;&gt;s1_dq_issues</title>
<path fill="none" stroke="black" d="M793.15,-819.96C790.66,-810.1 787.74,-798.52 785.13,-788.16"/>
<polygon fill="black" stroke="black" points="788.56,-787.47 782.72,-778.62 781.78,-789.18 788.56,-787.47"/>
</g>
<!-- s2_resolve_missing_values -->
<g id="node4" class="node">
<title>s2_resolve_missing_values</title>
<polygon fill="#ccffcc" stroke="black" points="142.12,-820.4 142.12,-867.9 413.88,-867.9 413.88,-820.4 142.12,-820.4"/>
<text text-anchor="middle" x="278" y="-850.6" font-family="Courier,monospace" font-size="14.00">s2_resolve_missing_values</text>
<polyline fill="none" stroke="black" points="142.12,-844.15 413.88,-844.15"/>
<text text-anchor="middle" x="278" y="-826.85" font-family="Courier,monospace" font-size="14.00">Remove or Impute Missing Values</text>
</g>
<!-- menu_s2_4 -->
<g id="node26" class="node">
<title>menu_s2_4</title>
<path fill="#ffffcc" stroke="black" d="M166.88,-734.4C166.88,-734.4 365.12,-734.4 365.12,-734.4 371.12,-734.4 377.12,-740.4 377.12,-746.4 377.12,-746.4 377.12,-771.4 377.12,-771.4 377.12,-777.4 371.12,-783.4 365.12,-783.4 365.12,-783.4 166.88,-783.4 166.88,-783.4 160.88,-783.4 154.88,-777.4 154.88,-771.4 154.88,-771.4 154.88,-746.4 154.88,-746.4 154.88,-740.4 160.88,-734.4 166.88,-734.4"/>
<text text-anchor="middle" x="266" y="-766.1" font-family="Helvetica,sans-Serif" font-size="14.00">menu_s2_4</text>
<polyline fill="none" stroke="black" points="154.88,-758.9 377.12,-758.9"/>
<text text-anchor="middle" x="266" y="-741.6" font-family="Helvetica,sans-Serif" font-size="14.00">s2_Clean_Missing_Values.ipynb</text>
</g>
<!-- s2_resolve_missing_values&#45;&gt;menu_s2_4 -->
<g id="edge8" class="edge">
<title>s2_resolve_missing_values&#45;&gt;menu_s2_4</title>
<path fill="none" stroke="black" d="M274.66,-819.96C273.54,-812.22 272.27,-803.41 271.06,-794.98"/>
<polygon fill="black" stroke="black" points="274.56,-794.73 269.67,-785.33 267.63,-795.73 274.56,-794.73"/>
</g>
<!-- s2_clean_physical_description -->
<g id="node5" class="node">
<title>s2_clean_physical_description</title>
<polygon fill="#ccffcc" stroke="black" points="566,-649.9 566,-697.4 846,-697.4 846,-649.9 566,-649.9"/>
<text text-anchor="middle" x="706" y="-680.1" font-family="Courier,monospace" font-size="14.00">s2_clean_physical_description</text>
<polyline fill="none" stroke="black" points="566,-673.65 846,-673.65"/>
<text text-anchor="middle" x="706" y="-656.35" font-family="Courier,monospace" font-size="14.00">Clean physical_descrption Column</text>
</g>
<!-- s2_openrefine_2 -->
<g id="node23" class="node">
<title>s2_openrefine_2</title>
<path fill="#ffffcc" stroke="black" d="M638.62,-563.9C638.62,-563.9 769.38,-563.9 769.38,-563.9 775.38,-563.9 781.38,-569.9 781.38,-575.9 781.38,-575.9 781.38,-600.9 781.38,-600.9 781.38,-606.9 775.38,-612.9 769.38,-612.9 769.38,-612.9 638.62,-612.9 638.62,-612.9 632.62,-612.9 626.62,-606.9 626.62,-600.9 626.62,-600.9 626.62,-575.9 626.62,-575.9 626.62,-569.9 632.62,-563.9 638.62,-563.9"/>
<text text-anchor="middle" x="704" y="-595.6" font-family="Helvetica,sans-Serif" font-size="14.00">s2_openrefine_2</text>
<polyline fill="none" stroke="black" points="626.62,-588.4 781.38,-588.4"/>
<text text-anchor="middle" x="704" y="-571.1" font-family="Helvetica,sans-Serif" font-size="14.00">s2_openrefine_2.json</text>
</g>
<!-- s2_clean_physical_description&#45;&gt;s2_openrefine_2 -->
<g id="edge11" class="edge">
<title>s2_clean_physical_description&#45;&gt;s2_openrefine_2</title>
<path fill="none" stroke="black" d="M705.44,-649.46C705.26,-641.81 705.05,-633.11 704.85,-624.77"/>
<polygon fill="black" stroke="black" points="708.35,-624.76 704.61,-614.85 701.35,-624.93 708.35,-624.76"/>
</g>
<!-- s2_clean_location_data -->
<g id="node6" class="node">
<title>s2_clean_location_data</title>
<polygon fill="#ccffcc" stroke="black" points="863.75,-649.9 863.75,-697.4 1094.25,-697.4 1094.25,-649.9 863.75,-649.9"/>
<text text-anchor="middle" x="979" y="-680.1" font-family="Courier,monospace" font-size="14.00">s2_clean_location_data</text>
<polyline fill="none" stroke="black" points="863.75,-673.65 1094.25,-673.65"/>
<text text-anchor="middle" x="979" y="-656.35" font-family="Courier,monospace" font-size="14.00">Clean location_data Column</text>
</g>
<!-- s2_openrefine_3 -->
<g id="node24" class="node">
<title>s2_openrefine_3</title>
<path fill="#ffffcc" stroke="black" d="M903.62,-563.9C903.62,-563.9 1034.38,-563.9 1034.38,-563.9 1040.38,-563.9 1046.38,-569.9 1046.38,-575.9 1046.38,-575.9 1046.38,-600.9 1046.38,-600.9 1046.38,-606.9 1040.38,-612.9 1034.38,-612.9 1034.38,-612.9 903.62,-612.9 903.62,-612.9 897.62,-612.9 891.62,-606.9 891.62,-600.9 891.62,-600.9 891.62,-575.9 891.62,-575.9 891.62,-569.9 897.62,-563.9 903.62,-563.9"/>
<text text-anchor="middle" x="969" y="-595.6" font-family="Helvetica,sans-Serif" font-size="14.00">s2_openrefine_3</text>
<polyline fill="none" stroke="black" points="891.62,-588.4 1046.38,-588.4"/>
<text text-anchor="middle" x="969" y="-571.1" font-family="Helvetica,sans-Serif" font-size="14.00">s2_openrefine_3.json</text>
</g>
<!-- s2_clean_location_data&#45;&gt;s2_openrefine_3 -->
<g id="edge14" class="edge">
<title>s2_clean_location_data&#45;&gt;s2_openrefine_3</title>
<path fill="none" stroke="black" d="M976.21,-649.46C975.3,-641.81 974.25,-633.11 973.25,-624.77"/>
<polygon fill="black" stroke="black" points="976.72,-624.35 972.06,-614.84 969.77,-625.18 976.72,-624.35"/>
</g>
<!-- s2_standardize_event -->
<g id="node7" class="node">
<title>s2_standardize_event</title>
<polygon fill="#ccffcc" stroke="black" points="334,-649.9 334,-697.4 548,-697.4 548,-649.9 334,-649.9"/>
<text text-anchor="middle" x="441" y="-680.1" font-family="Courier,monospace" font-size="14.00">s2_standardize_event</text>
<polyline fill="none" stroke="black" points="334,-673.65 548,-673.65"/>
<text text-anchor="middle" x="441" y="-656.35" font-family="Courier,monospace" font-size="14.00">Standardize event Column</text>
</g>
<!-- s2_openrefine_1 -->
<g id="node25" class="node">
<title>s2_openrefine_1</title>
<path fill="#ffffcc" stroke="black" d="M461.62,-563.9C461.62,-563.9 592.38,-563.9 592.38,-563.9 598.38,-563.9 604.38,-569.9 604.38,-575.9 604.38,-575.9 604.38,-600.9 604.38,-600.9 604.38,-606.9 598.38,-612.9 592.38,-612.9 592.38,-612.9 461.62,-612.9 461.62,-612.9 455.62,-612.9 449.62,-606.9 449.62,-600.9 449.62,-600.9 449.62,-575.9 449.62,-575.9 449.62,-569.9 455.62,-563.9 461.62,-563.9"/>
<text text-anchor="middle" x="527" y="-595.6" font-family="Helvetica,sans-Serif" font-size="14.00">s2_openrefine_1</text>
<polyline fill="none" stroke="black" points="449.62,-588.4 604.38,-588.4"/>
<text text-anchor="middle" x="527" y="-571.1" font-family="Helvetica,sans-Serif" font-size="14.00">s2_openrefine_1.json</text>
</g>
<!-- s2_standardize_event&#45;&gt;s2_openrefine_1 -->
<g id="edge17" class="edge">
<title>s2_standardize_event&#45;&gt;s2_openrefine_1</title>
<path fill="none" stroke="black" d="M464.96,-649.46C473.95,-640.75 484.34,-630.7 494.01,-621.33"/>
<polygon fill="black" stroke="black" points="496.44,-623.86 501.19,-614.39 491.57,-618.83 496.44,-623.86"/>
</g>
<!-- s2_merge -->
<g id="node8" class="node">
<title>s2_merge</title>
<polygon fill="#ccffcc" stroke="black" points="563,-478.65 563,-526.15 843,-526.15 843,-478.65 563,-478.65"/>
<text text-anchor="middle" x="703" y="-508.85" font-family="Courier,monospace" font-size="14.00">s2_merge</text>
<polyline fill="none" stroke="black" points="563,-502.4 843,-502.4"/>
<text text-anchor="middle" x="703" y="-485.1" font-family="Courier,monospace" font-size="14.00">Merge Open Refine Cleaning Tasks</text>
</g>
<!-- s2_combined_openrefine -->
<g id="node28" class="node">
<title>s2_combined_openrefine</title>
<path fill="#ffffcc" stroke="black" d="M608,-391.9C608,-391.9 792,-391.9 792,-391.9 798,-391.9 804,-397.9 804,-403.9 804,-403.9 804,-428.9 804,-428.9 804,-434.9 798,-440.9 792,-440.9 792,-440.9 608,-440.9 608,-440.9 602,-440.9 596,-434.9 596,-428.9 596,-428.9 596,-403.9 596,-403.9 596,-397.9 602,-391.9 608,-391.9"/>
<text text-anchor="middle" x="700" y="-423.6" font-family="Helvetica,sans-Serif" font-size="14.00">s2_combined_openrefine</text>
<polyline fill="none" stroke="black" points="596,-416.4 804,-416.4"/>
<text text-anchor="middle" x="700" y="-399.1" font-family="Helvetica,sans-Serif" font-size="14.00">file:combined_openrefine.json</text>
</g>
<!-- s2_merge&#45;&gt;s2_combined_openrefine -->
<g id="edge20" class="edge">
<title>s2_merge&#45;&gt;s2_combined_openrefine</title>
<path fill="none" stroke="black" d="M702.18,-478.45C701.9,-470.5 701.57,-461.4 701.26,-452.69"/>
<polygon fill="black" stroke="black" points="704.76,-452.59 700.9,-442.72 697.76,-452.84 704.76,-452.59"/>
</g>
<!-- s2_clean_missing_values -->
<g id="node9" class="node">
<title>s2_clean_missing_values</title>
<polygon fill="#ccffcc" stroke="black" points="44.12,-649.9 44.12,-697.4 315.88,-697.4 315.88,-649.9 44.12,-649.9"/>
<text text-anchor="middle" x="180" y="-680.1" font-family="Courier,monospace" font-size="14.00">s2_clean_missing_values</text>
<polyline fill="none" stroke="black" points="44.12,-673.65 315.88,-673.65"/>
<text text-anchor="middle" x="180" y="-656.35" font-family="Courier,monospace" font-size="14.00">Remove or Impute Missing Values</text>
</g>
<!-- s2_menu_csv -->
<g id="node27" class="node">
<title>s2_menu_csv</title>
<path fill="#ffffcc" stroke="black" d="M343.5,-477.9C343.5,-477.9 470.5,-477.9 470.5,-477.9 476.5,-477.9 482.5,-483.9 482.5,-489.9 482.5,-489.9 482.5,-514.9 482.5,-514.9 482.5,-520.9 476.5,-526.9 470.5,-526.9 470.5,-526.9 343.5,-526.9 343.5,-526.9 337.5,-526.9 331.5,-520.9 331.5,-514.9 331.5,-514.9 331.5,-489.9 331.5,-489.9 331.5,-483.9 337.5,-477.9 343.5,-477.9"/>
<text text-anchor="middle" x="407" y="-509.6" font-family="Helvetica,sans-Serif" font-size="14.00">s2_menu_csv</text>
<polyline fill="none" stroke="black" points="331.5,-502.4 482.5,-502.4"/>
<text text-anchor="middle" x="407" y="-485.1" font-family="Helvetica,sans-Serif" font-size="14.00">file:menu_data_1.csv</text>
</g>
<!-- s2_clean_missing_values&#45;&gt;s2_menu_csv -->
<g id="edge24" class="edge">
<title>s2_clean_missing_values&#45;&gt;s2_menu_csv</title>
<path fill="none" stroke="black" d="M211.09,-649.47C251.22,-619.55 321.17,-567.39 365.72,-534.18"/>
<polygon fill="black" stroke="black" points="367.69,-537.08 373.61,-528.29 363.5,-531.47 367.69,-537.08"/>
</g>
<!-- s2_s2_combined_openrefine_cleaning -->
<g id="node10" class="node">
<title>s2_s2_combined_openrefine_cleaning</title>
<polygon fill="#ccffcc" stroke="black" points="546.75,-307.4 546.75,-354.9 843.25,-354.9 843.25,-307.4 546.75,-307.4"/>
<text text-anchor="middle" x="695" y="-337.6" font-family="Courier,monospace" font-size="14.00">s2_s2_combined_openrefine_cleaning</text>
<polyline fill="none" stroke="black" points="546.75,-331.15 843.25,-331.15"/>
<text text-anchor="middle" x="695" y="-313.85" font-family="Courier,monospace" font-size="14.00">Final Cleaning of Dataset</text>
</g>
<!-- cleaned_menu -->
<g id="node13" class="node">
<title>cleaned_menu</title>
<path fill="#ffffcc" stroke="black" d="M589.12,-221.4C589.12,-221.4 716.88,-221.4 716.88,-221.4 722.88,-221.4 728.88,-227.4 728.88,-233.4 728.88,-233.4 728.88,-258.4 728.88,-258.4 728.88,-264.4 722.88,-270.4 716.88,-270.4 716.88,-270.4 589.12,-270.4 589.12,-270.4 583.12,-270.4 577.12,-264.4 577.12,-258.4 577.12,-258.4 577.12,-233.4 577.12,-233.4 577.12,-227.4 583.12,-221.4 589.12,-221.4"/>
<text text-anchor="middle" x="653" y="-253.1" font-family="Helvetica,sans-Serif" font-size="14.00">cleaned_menu</text>
<polyline fill="none" stroke="black" points="577.12,-245.9 728.88,-245.9"/>
<text text-anchor="middle" x="653" y="-228.6" font-family="Helvetica,sans-Serif" font-size="14.00">file:CleanedMenu.csv</text>
</g>
<!-- s2_s2_combined_openrefine_cleaning&#45;&gt;cleaned_menu -->
<g id="edge27" class="edge">
<title>s2_s2_combined_openrefine_cleaning&#45;&gt;cleaned_menu</title>
<path fill="none" stroke="black" d="M683.3,-306.96C679.22,-298.87 674.55,-289.61 670.12,-280.83"/>
<polygon fill="black" stroke="black" points="673.39,-279.54 665.76,-272.19 667.14,-282.69 673.39,-279.54"/>
</g>
<!-- open_refine_history -->
<g id="node14" class="node">
<title>open_refine_history</title>
<path fill="#ffffcc" stroke="black" d="M759.38,-221.4C759.38,-221.4 924.62,-221.4 924.62,-221.4 930.62,-221.4 936.62,-227.4 936.62,-233.4 936.62,-233.4 936.62,-258.4 936.62,-258.4 936.62,-264.4 930.62,-270.4 924.62,-270.4 924.62,-270.4 759.38,-270.4 759.38,-270.4 753.38,-270.4 747.38,-264.4 747.38,-258.4 747.38,-258.4 747.38,-233.4 747.38,-233.4 747.38,-227.4 753.38,-221.4 759.38,-221.4"/>
<text text-anchor="middle" x="842" y="-253.1" font-family="Helvetica,sans-Serif" font-size="14.00">open_refine_history</text>
<polyline fill="none" stroke="black" points="747.38,-245.9 936.62,-245.9"/>
<text text-anchor="middle" x="842" y="-228.6" font-family="Helvetica,sans-Serif" font-size="14.00">file:OpenRefineHistory.json</text>
</g>
<!-- s2_s2_combined_openrefine_cleaning&#45;&gt;open_refine_history -->
<g id="edge28" class="edge">
<title>s2_s2_combined_openrefine_cleaning&#45;&gt;open_refine_history</title>
<path fill="none" stroke="black" d="M735.95,-306.96C752.72,-297.46 772.33,-286.36 790.09,-276.3"/>
<polygon fill="black" stroke="black" points="791.44,-279.55 798.42,-271.58 787.99,-273.46 791.44,-279.55"/>
</g>
<!-- inner_workflow_documentation -->
<g id="node11" class="node">
<title>inner_workflow_documentation</title>
<polygon fill="#ccffcc" stroke="black" points="708.5,-136.9 708.5,-184.4 955.5,-184.4 955.5,-136.9 708.5,-136.9"/>
<text text-anchor="middle" x="832" y="-167.1" font-family="Courier,monospace" font-size="14.00">inner_workflow_documentation</text>
<polyline fill="none" stroke="black" points="708.5,-160.65 955.5,-160.65"/>
<text text-anchor="middle" x="832" y="-143.35" font-family="Courier,monospace" font-size="14.00">Document Inner Workflow</text>
</g>
<!-- yesworkflow_model -->
<g id="node16" class="node">
<title>yesworkflow_model</title>
<path fill="#ffffcc" stroke="black" d="M734,-50.9C734,-50.9 888,-50.9 888,-50.9 894,-50.9 900,-56.9 900,-62.9 900,-62.9 900,-87.9 900,-87.9 900,-93.9 894,-99.9 888,-99.9 888,-99.9 734,-99.9 734,-99.9 728,-99.9 722,-93.9 722,-87.9 722,-87.9 722,-62.9 722,-62.9 722,-56.9 728,-50.9 734,-50.9"/>
<text text-anchor="middle" x="811" y="-82.6" font-family="Helvetica,sans-Serif" font-size="14.00">yesworkflow_model</text>
<polyline fill="none" stroke="black" points="722,-75.4 900,-75.4"/>
<text text-anchor="middle" x="811" y="-58.1" font-family="Helvetica,sans-Serif" font-size="14.00">file:OpenFefineHistory.yw</text>
</g>
<!-- inner_workflow_documentation&#45;&gt;yesworkflow_model -->
<g id="edge31" class="edge">
<title>inner_workflow_documentation&#45;&gt;yesworkflow_model</title>
<path fill="none" stroke="black" d="M826.15,-136.46C824.2,-128.72 821.98,-119.91 819.85,-111.48"/>
<polygon fill="black" stroke="black" points="823.25,-110.64 817.41,-101.8 816.46,-112.35 823.25,-110.64"/>
</g>
<!-- graphvis_model -->
<g id="node17" class="node">
<title>graphvis_model</title>
<path fill="#ffffcc" stroke="black" d="M929.75,-50.9C929.75,-50.9 1082.25,-50.9 1082.25,-50.9 1088.25,-50.9 1094.25,-56.9 1094.25,-62.9 1094.25,-62.9 1094.25,-87.9 1094.25,-87.9 1094.25,-93.9 1088.25,-99.9 1082.25,-99.9 1082.25,-99.9 929.75,-99.9 929.75,-99.9 923.75,-99.9 917.75,-93.9 917.75,-87.9 917.75,-87.9 917.75,-62.9 917.75,-62.9 917.75,-56.9 923.75,-50.9 929.75,-50.9"/>
<text text-anchor="middle" x="1006" y="-82.6" font-family="Helvetica,sans-Serif" font-size="14.00">graphvis_model</text>
<polyline fill="none" stroke="black" points="917.75,-75.4 1094.25,-75.4"/>
<text text-anchor="middle" x="1006" y="-58.1" font-family="Helvetica,sans-Serif" font-size="14.00">file:OpenFefineHistory.gv</text>
</g>
<!-- inner_workflow_documentation&#45;&gt;graphvis_model -->
<g id="edge32" class="edge">
<title>inner_workflow_documentation&#45;&gt;graphvis_model</title>
<path fill="none" stroke="black" d="M880.47,-136.46C900.69,-126.79 924.39,-115.45 945.72,-105.24"/>
<polygon fill="black" stroke="black" points="947.1,-108.46 954.61,-100.99 944.08,-102.15 947.1,-108.46"/>
</g>
<!-- svg_model -->
<g id="node18" class="node">
<title>svg_model</title>
<path fill="#ffffcc" stroke="black" d="M530.25,-50.9C530.25,-50.9 691.75,-50.9 691.75,-50.9 697.75,-50.9 703.75,-56.9 703.75,-62.9 703.75,-62.9 703.75,-87.9 703.75,-87.9 703.75,-93.9 697.75,-99.9 691.75,-99.9 691.75,-99.9 530.25,-99.9 530.25,-99.9 524.25,-99.9 518.25,-93.9 518.25,-87.9 518.25,-87.9 518.25,-62.9 518.25,-62.9 518.25,-56.9 524.25,-50.9 530.25,-50.9"/>
<text text-anchor="middle" x="611" y="-82.6" font-family="Helvetica,sans-Serif" font-size="14.00">svg_model</text>
<polyline fill="none" stroke="black" points="518.25,-75.4 703.75,-75.4"/>
<text text-anchor="middle" x="611" y="-58.1" font-family="Helvetica,sans-Serif" font-size="14.00">file:OpenRefineHistory.svg</text>
</g>
<!-- inner_workflow_documentation&#45;&gt;svg_model -->
<g id="edge33" class="edge">
<title>inner_workflow_documentation&#45;&gt;svg_model</title>
<path fill="none" stroke="black" d="M770.44,-136.46C743.94,-126.48 712.73,-114.72 684.99,-104.27"/>
<polygon fill="black" stroke="black" points="686.55,-101.12 675.95,-100.87 684.08,-107.67 686.55,-101.12"/>
</g>
<!-- s3_data_quality_check -->
<g id="node12" class="node">
<title>s3_data_quality_check</title>
<polygon fill="#ccffcc" stroke="black" points="179.38,-136.9 179.38,-184.4 368.62,-184.4 368.62,-136.9 179.38,-136.9"/>
<text text-anchor="middle" x="274" y="-167.1" font-family="Courier,monospace" font-size="14.00">s3_data_quality_check</text>
<polyline fill="none" stroke="black" points="179.38,-160.65 368.62,-160.65"/>
<text text-anchor="middle" x="274" y="-143.35" font-family="Courier,monospace" font-size="14.00">Data Quality Check</text>
</g>
<!-- data_quality_reports -->
<g id="node15" class="node">
<title>data_quality_reports</title>
<path fill="#ffffcc" stroke="black" d="M334.12,-93.4C334.12,-93.4 213.88,-93.4 213.88,-93.4 207.88,-93.4 201.88,-87.4 201.88,-81.4 201.88,-81.4 201.88,-69.4 201.88,-69.4 201.88,-63.4 207.88,-57.4 213.88,-57.4 213.88,-57.4 334.12,-57.4 334.12,-57.4 340.12,-57.4 346.12,-63.4 346.12,-69.4 346.12,-69.4 346.12,-81.4 346.12,-81.4 346.12,-87.4 340.12,-93.4 334.12,-93.4"/>
<text text-anchor="middle" x="274" y="-70.35" font-family="Helvetica,sans-Serif" font-size="14.00">data_quality_reports</text>
</g>
<!-- s3_data_quality_check&#45;&gt;data_quality_reports -->
<g id="edge35" class="edge">
<title>s3_data_quality_check&#45;&gt;data_quality_reports</title>
<path fill="none" stroke="black" d="M274,-136.46C274,-126.71 274,-115.27 274,-105"/>
<polygon fill="black" stroke="black" points="277.5,-105.17 274,-95.17 270.5,-105.17 277.5,-105.17"/>
</g>
<!-- cleaned_menu&#45;&gt;s3_data_quality_check -->
<g id="edge37" class="edge">
<title>cleaned_menu&#45;&gt;s3_data_quality_check</title>
<path fill="none" stroke="black" d="M576.76,-228.15C520.27,-215.75 442.58,-198.68 380.05,-184.94"/>
<polygon fill="black" stroke="black" points="380.95,-181.56 370.43,-182.83 379.45,-188.4 380.95,-181.56"/>
</g>
<!-- cleaned_menu_output_port -->
<g id="node30" class="node">
<title>cleaned_menu_output_port</title>
<ellipse fill="#ffffff" stroke="black" cx="1125" cy="-160.65" rx="7.2" ry="7.2"/>
</g>
<!-- cleaned_menu&#45;&gt;cleaned_menu_output_port -->
<g id="edge39" class="edge">
<title>cleaned_menu&#45;&gt;cleaned_menu_output_port</title>
<path fill="none" stroke="black" d="M729.3,-222.66C732.23,-222.03 735.14,-221.44 738,-220.9 818.75,-205.68 1033.56,-223.69 1106,-184.9 1109.68,-182.93 1112.91,-179.92 1115.62,-176.72"/>
<polygon fill="black" stroke="black" points="1118.43,-178.81 1121.23,-168.59 1112.67,-174.83 1118.43,-178.81"/>
</g>
<!-- open_refine_history&#45;&gt;inner_workflow_documentation -->
<g id="edge34" class="edge">
<title>open_refine_history&#45;&gt;inner_workflow_documentation</title>
<path fill="none" stroke="black" d="M839.16,-221.27C838.22,-213.4 837.14,-204.47 836.12,-195.97"/>
<polygon fill="black" stroke="black" points="839.63,-195.78 834.96,-186.27 832.68,-196.62 839.63,-195.78"/>
</g>
<!-- open_refine_history_output_port -->
<g id="node31" class="node">
<title>open_refine_history_output_port</title>
<ellipse fill="#ffffff" stroke="black" cx="1157" cy="-160.65" rx="7.2" ry="7.2"/>
</g>
<!-- open_refine_history&#45;&gt;open_refine_history_output_port -->
<g id="edge40" class="edge">
<title>open_refine_history&#45;&gt;open_refine_history_output_port</title>
<path fill="none" stroke="black" d="M937.03,-233.7C1011.54,-223.49 1107.96,-206.69 1141,-184.9 1143.99,-182.93 1146.58,-180.18 1148.75,-177.27"/>
<polygon fill="black" stroke="black" points="1151.63,-179.28 1153.73,-168.9 1145.61,-175.7 1151.63,-179.28"/>
</g>
<!-- data_quality_reports_output_port -->
<g id="node32" class="node">
<title>data_quality_reports_output_port</title>
<ellipse fill="#ffffff" stroke="black" cx="274" cy="-7.2" rx="7.2" ry="7.2"/>
</g>
<!-- data_quality_reports&#45;&gt;data_quality_reports_output_port -->
<g id="edge41" class="edge">
<title>data_quality_reports&#45;&gt;data_quality_reports_output_port</title>
<path fill="none" stroke="black" d="M274,-57.01C274,-47.42 274,-35.55 274,-25.91"/>
<polygon fill="black" stroke="black" points="277.5,-26.09 274,-16.09 270.5,-26.09 277.5,-26.09"/>
</g>
<!-- yesworkflow_model_output_port -->
<g id="node33" class="node">
<title>yesworkflow_model_output_port</title>
<ellipse fill="#ffffff" stroke="black" cx="811" cy="-7.2" rx="7.2" ry="7.2"/>
</g>
<!-- yesworkflow_model&#45;&gt;yesworkflow_model_output_port -->
<g id="edge42" class="edge">
<title>yesworkflow_model&#45;&gt;yesworkflow_model_output_port</title>
<path fill="none" stroke="black" d="M811,-50.5C811,-42.44 811,-33.58 811,-26.07"/>
<polygon fill="black" stroke="black" points="814.5,-26.27 811,-16.27 807.5,-26.27 814.5,-26.27"/>
</g>
<!-- graphvis_model_output_port -->
<g id="node34" class="node">
<title>graphvis_model_output_port</title>
<ellipse fill="#ffffff" stroke="black" cx="1006" cy="-7.2" rx="7.2" ry="7.2"/>
</g>
<!-- graphvis_model&#45;&gt;graphvis_model_output_port -->
<g id="edge43" class="edge">
<title>graphvis_model&#45;&gt;graphvis_model_output_port</title>
<path fill="none" stroke="black" d="M1006,-50.5C1006,-42.44 1006,-33.58 1006,-26.07"/>
<polygon fill="black" stroke="black" points="1009.5,-26.27 1006,-16.27 1002.5,-26.27 1009.5,-26.27"/>
</g>
<!-- svg_model_output_port -->
<g id="node35" class="node">
<title>svg_model_output_port</title>
<ellipse fill="#ffffff" stroke="black" cx="611" cy="-7.2" rx="7.2" ry="7.2"/>
</g>
<!-- svg_model&#45;&gt;svg_model_output_port -->
<g id="edge44" class="edge">
<title>svg_model&#45;&gt;svg_model_output_port</title>
<path fill="none" stroke="black" d="M611,-50.5C611,-42.44 611,-33.58 611,-26.07"/>
<polygon fill="black" stroke="black" points="614.5,-26.27 611,-16.27 607.5,-26.27 614.5,-26.27"/>
</g>
<!-- menu_csv -->
<g id="node19" class="node">
<title>menu_csv</title>
<path fill="#ffffcc" stroke="black" d="M452.38,-1061.4C452.38,-1061.4 527.62,-1061.4 527.62,-1061.4 533.62,-1061.4 539.62,-1067.4 539.62,-1073.4 539.62,-1073.4 539.62,-1098.4 539.62,-1098.4 539.62,-1104.4 533.62,-1110.4 527.62,-1110.4 527.62,-1110.4 452.38,-1110.4 452.38,-1110.4 446.38,-1110.4 440.38,-1104.4 440.38,-1098.4 440.38,-1098.4 440.38,-1073.4 440.38,-1073.4 440.38,-1067.4 446.38,-1061.4 452.38,-1061.4"/>
<text text-anchor="middle" x="490" y="-1093.1" font-family="Helvetica,sans-Serif" font-size="14.00">menu_csv</text>
<polyline fill="none" stroke="black" points="440.38,-1085.9 539.62,-1085.9"/>
<text text-anchor="middle" x="490" y="-1068.6" font-family="Helvetica,sans-Serif" font-size="14.00">file:menu.csv</text>
</g>
<!-- menu_csv&#45;&gt;s1_profile_dataset_python -->
<g id="edge2" class="edge">
<title>menu_csv&#45;&gt;s1_profile_dataset_python</title>
<path fill="none" stroke="black" d="M508.45,-1061.27C515.15,-1052.69 522.84,-1042.84 530.01,-1033.66"/>
<polygon fill="black" stroke="black" points="532.62,-1036 536.02,-1025.96 527.11,-1031.69 532.62,-1036"/>
</g>
<!-- menu_csv&#45;&gt;s1_profile_dataset_openrefine -->
<g id="edge4" class="edge">
<title>menu_csv&#45;&gt;s1_profile_dataset_openrefine</title>
<path fill="none" stroke="black" d="M540.1,-1072.71C588.67,-1060.88 663.88,-1042.57 725.79,-1027.5"/>
<polygon fill="black" stroke="black" points="726.43,-1030.95 735.32,-1025.18 724.78,-1024.15 726.43,-1030.95"/>
</g>
<!-- menu_csv&#45;&gt;s2_resolve_missing_values -->
<g id="edge9" class="edge">
<title>menu_csv&#45;&gt;s2_resolve_missing_values</title>
<path fill="none" stroke="black" d="M459.57,-1061C446.84,-1050.46 432.2,-1037.6 420,-1024.9 373.84,-976.86 327.28,-914.71 300.62,-877.5"/>
<polygon fill="black" stroke="black" points="303.49,-875.5 294.84,-869.38 297.79,-879.56 303.49,-875.5"/>
</g>
<!-- menu_csv&#45;&gt;s2_clean_physical_description -->
<g id="edge12" class="edge">
<title>menu_csv&#45;&gt;s2_clean_physical_description</title>
<path fill="none" stroke="black" d="M540.01,-1083.12C582.85,-1078.72 642.61,-1065.14 675,-1024.9 703.42,-989.59 685,-968.73 685,-923.4 685,-923.4 685,-923.4 685,-843.15 685,-796.34 693.08,-742.78 699.21,-708.84"/>
<polygon fill="black" stroke="black" points="702.62,-709.66 701.01,-699.19 695.74,-708.38 702.62,-709.66"/>
</g>
<!-- menu_csv&#45;&gt;s2_clean_location_data -->
<g id="edge15" class="edge">
<title>menu_csv&#45;&gt;s2_clean_location_data</title>
<path fill="none" stroke="black" d="M539.71,-1082.14C656.22,-1075.2 939.36,-1055.33 969,-1024.9 1000.63,-992.43 979,-968.73 979,-923.4 979,-923.4 979,-923.4 979,-843.15 979,-796.7 979,-743.05 979,-709"/>
<polygon fill="black" stroke="black" points="982.5,-709.33 979,-699.33 975.5,-709.33 982.5,-709.33"/>
</g>
<!-- menu_csv&#45;&gt;s2_standardize_event -->
<g id="edge18" class="edge">
<title>menu_csv&#45;&gt;s2_standardize_event</title>
<path fill="none" stroke="black" d="M460.49,-1061.05C450.4,-1051.07 440.33,-1038.6 435,-1024.9 412.92,-968.14 429.06,-785.81 437.13,-709.13"/>
<polygon fill="black" stroke="black" points="440.6,-709.59 438.19,-699.27 433.64,-708.84 440.6,-709.59"/>
</g>
<!-- menu_csv&#45;&gt;s2_clean_missing_values -->
<g id="edge25" class="edge">
<title>menu_csv&#45;&gt;s2_clean_missing_values</title>
<path fill="none" stroke="black" d="M440.12,-1084.96C339.78,-1082.19 123,-1060.36 123,-923.4 123,-923.4 123,-923.4 123,-843.15 123,-793.53 128.32,-780.26 146,-733.9 149.39,-725 154.01,-715.85 158.74,-707.48"/>
<polygon fill="black" stroke="black" points="161.65,-709.43 163.72,-699.04 155.62,-705.87 161.65,-709.43"/>
</g>
<!-- menu_csv&#45;&gt;s3_data_quality_check -->
<g id="edge36" class="edge">
<title>menu_csv&#45;&gt;s3_data_quality_check</title>
<path fill="none" stroke="black" d="M439.89,-1085.45C368.17,-1084.31 233.78,-1074.89 133,-1024.9 73.99,-995.63 25,-989.27 25,-923.4 25,-923.4 25,-923.4 25,-330.15 25,-256.57 100.49,-212.94 168.34,-188.57"/>
<polygon fill="black" stroke="black" points="169.42,-191.91 177.72,-185.32 167.13,-185.29 169.42,-191.91"/>
</g>
<!-- s1_dq_issues_python&#45;&gt;s1_combined_dq_issues -->
<g id="edge6" class="edge">
<title>s1_dq_issues_python&#45;&gt;s1_combined_dq_issues</title>
<path fill="none" stroke="black" d="M610.98,-903.91C641.45,-894.38 679.78,-882.41 713.87,-871.75"/>
<polygon fill="black" stroke="black" points="714.83,-875.12 723.33,-868.8 712.74,-868.44 714.83,-875.12"/>
</g>
<!-- s1_dq_issues_python&#45;&gt;s2_resolve_missing_values -->
<g id="edge10" class="edge">
<title>s1_dq_issues_python&#45;&gt;s2_resolve_missing_values</title>
<path fill="none" stroke="black" d="M491.45,-903.91C456.41,-894.26 412.21,-882.09 373.13,-871.34"/>
<polygon fill="black" stroke="black" points="374.29,-868.03 363.72,-868.75 372.43,-874.77 374.29,-868.03"/>
</g>
<!-- s1_dq_issues_openrefine&#45;&gt;s1_combined_dq_issues -->
<g id="edge7" class="edge">
<title>s1_dq_issues_openrefine&#45;&gt;s1_combined_dq_issues</title>
<path fill="none" stroke="black" d="M811.37,-904.1C809.82,-896.7 807.95,-887.8 806.14,-879.19"/>
<polygon fill="black" stroke="black" points="809.62,-878.72 804.14,-869.65 802.77,-880.16 809.62,-878.72"/>
</g>
<!-- s1_dq_issues&#45;&gt;s2_clean_physical_description -->
<g id="edge13" class="edge">
<title>s1_dq_issues&#45;&gt;s2_clean_physical_description</title>
<path fill="none" stroke="black" d="M763.08,-740.65C754.55,-730.78 743.57,-718.09 733.53,-706.48"/>
<polygon fill="black" stroke="black" points="736.27,-704.3 727.08,-699.02 730.97,-708.88 736.27,-704.3"/>
</g>
<!-- s1_dq_issues&#45;&gt;s2_clean_location_data -->
<g id="edge16" class="edge">
<title>s1_dq_issues&#45;&gt;s2_clean_location_data</title>
<path fill="none" stroke="black" d="M820.14,-740.45C846.91,-729.36 882.14,-714.77 912.62,-702.14"/>
<polygon fill="black" stroke="black" points="913.88,-705.41 921.78,-698.35 911.2,-698.94 913.88,-705.41"/>
</g>
<!-- s1_dq_issues&#45;&gt;s2_standardize_event -->
<g id="edge19" class="edge">
<title>s1_dq_issues&#45;&gt;s2_standardize_event</title>
<path fill="none" stroke="black" d="M724.6,-744.71C676.73,-732.88 605.11,-715.19 545.82,-700.54"/>
<polygon fill="black" stroke="black" points="546.92,-697.21 536.37,-698.21 545.24,-704.01 546.92,-697.21"/>
</g>
<!-- s2_openrefine_2&#45;&gt;s2_merge -->
<g id="edge21" class="edge">
<title>s2_openrefine_2&#45;&gt;s2_merge</title>
<path fill="none" stroke="black" d="M703.72,-563.55C703.62,-555.55 703.51,-546.46 703.41,-537.81"/>
<polygon fill="black" stroke="black" points="706.91,-537.91 703.29,-527.95 699.91,-537.99 706.91,-537.91"/>
</g>
<!-- s2_openrefine_3&#45;&gt;s2_merge -->
<g id="edge22" class="edge">
<title>s2_openrefine_3&#45;&gt;s2_merge</title>
<path fill="none" stroke="black" d="M893.13,-563.44C860.01,-552.98 821.06,-540.68 787.07,-529.95"/>
<polygon fill="black" stroke="black" points="788.25,-526.65 777.66,-526.98 786.14,-533.33 788.25,-526.65"/>
</g>
<!-- s2_openrefine_1&#45;&gt;s2_merge -->
<g id="edge23" class="edge">
<title>s2_openrefine_1&#45;&gt;s2_merge</title>
<path fill="none" stroke="black" d="M576.96,-563.55C597.93,-553.55 622.47,-541.84 644.29,-531.42"/>
<polygon fill="black" stroke="black" points="645.55,-534.7 653.06,-527.23 642.53,-528.38 645.55,-534.7"/>
</g>
<!-- menu_s2_4&#45;&gt;s2_clean_missing_values -->
<g id="edge26" class="edge">
<title>menu_s2_4&#45;&gt;s2_clean_missing_values</title>
<path fill="none" stroke="black" d="M241.59,-734.27C232.35,-725.33 221.7,-715.02 211.88,-705.51"/>
<polygon fill="black" stroke="black" points="214.59,-703.26 204.97,-698.82 209.72,-708.29 214.59,-703.26"/>
</g>
<!-- s2_menu_csv&#45;&gt;s2_s2_combined_openrefine_cleaning -->
<g id="edge29" class="edge">
<title>s2_menu_csv&#45;&gt;s2_s2_combined_openrefine_cleaning</title>
<path fill="none" stroke="black" d="M444.96,-477.49C481.18,-454.85 537.41,-420.14 587,-391.4 604.63,-381.18 624.11,-370.36 641.6,-360.8"/>
<polygon fill="black" stroke="black" points="643.21,-363.91 650.32,-356.06 639.86,-357.76 643.21,-363.91"/>
</g>
<!-- s2_combined_openrefine&#45;&gt;s2_s2_combined_openrefine_cleaning -->
<g id="edge30" class="edge">
<title>s2_combined_openrefine&#45;&gt;s2_s2_combined_openrefine_cleaning</title>
<path fill="none" stroke="black" d="M698.58,-391.77C698.11,-383.99 697.58,-375.18 697.08,-366.76"/>
<polygon fill="black" stroke="black" points="700.57,-366.55 696.48,-356.78 693.59,-366.97 700.57,-366.55"/>
</g>
<!-- menu_csv_input_port -->
<g id="node29" class="node">
<title>menu_csv_input_port</title>
<ellipse fill="#ffffff" stroke="black" cx="490" cy="-1154.1" rx="7.2" ry="7.2"/>
</g>
<!-- menu_csv_input_port&#45;&gt;menu_csv -->
<g id="edge38" class="edge">
<title>menu_csv_input_port&#45;&gt;menu_csv</title>
<path fill="none" stroke="black" d="M490,-1146.51C490,-1140.6 490,-1131.45 490,-1122.07"/>
<polygon fill="black" stroke="black" points="493.5,-1122.24 490,-1112.24 486.5,-1122.24 493.5,-1122.24"/>
</g>
</g>
</svg>
